<?xml version="1.0" encoding="UTF-8" standalone="no"?>
<!-- Created with Inkscape (http://www.inkscape.org/) -->

<svg
   width="256"
   height="256"
   viewBox="0 0 67.73336 67.733314"
   version="1.1"
   id="svg5"
   inkscape:version="1.2.2 (732a01da63, 2022-12-09)"
   sodipodi:docname="Cloud - sunny.svg"
   inkscape:export-filename="png\Cloud - sunny.png"
   inkscape:export-xdpi="96"
   inkscape:export-ydpi="96"
   xmlns:inkscape="http://www.inkscape.org/namespaces/inkscape"
   xmlns:sodipodi="http://sodipodi.sourceforge.net/DTD/sodipodi-0.dtd"
   xmlns:xlink="http://www.w3.org/1999/xlink"
   xmlns="http://www.w3.org/2000/svg"
   xmlns:svg="http://www.w3.org/2000/svg">
  <sodipodi:namedview
     id="namedview7"
     pagecolor="#ffffff"
     bordercolor="#000000"
     borderopacity="0.25"
     inkscape:showpageshadow="2"
     inkscape:pageopacity="0.0"
     inkscape:pagecheckerboard="0"
     inkscape:deskcolor="#d1d1d1"
     inkscape:document-units="mm"
     showgrid="false"
     inkscape:zoom="2"
     inkscape:cx="63.75"
     inkscape:cy="146.25"
     inkscape:window-width="1718"
     inkscape:window-height="1080"
     inkscape:window-x="1920"
     inkscape:window-y="0"
     inkscape:window-maximized="0"
     inkscape:current-layer="layer1-3" />
  <defs
     id="defs2">
    <radialGradient
       inkscape:collect="always"
       xlink:href="#linearGradient4260"
       id="radialGradient4262"
       cx="35.586456"
       cy="35.58646"
       fx="35.586456"
       fy="35.58646"
       r="17.835016"
       gradientUnits="userSpaceOnUse"
       gradientTransform="matrix(0.88013461,0,0,0.88013447,0.36977986,17.296248)" />
    <linearGradient
       inkscape:collect="always"
       id="linearGradient4260">
      <stop
         style="stop-color:#ffff00;stop-opacity:1;"
         offset="0"
         id="stop4256" />
      <stop
         style="stop-color:#ffdd05;stop-opacity:1;"
         offset="1"
         id="stop4258" />
    </linearGradient>
  </defs>
  <g
     inkscape:label="Lager 1"
     inkscape:groupmode="layer"
     id="layer1">
    <circle
       style="fill:#dae8e9;fill-opacity:1;stroke:#040000;stroke-width:0"
       id="path234-9"
       cy="35.509777"
       cx="54.778683"
       r="12.557772" />
    <circle
       style="fill:#dae8e9;fill-opacity:1;stroke:#040000;stroke-width:0"
       id="path234-9-1"
       cy="26.832603"
       cx="46.255165"
       r="12.557772" />
    <rect
       style="fill:#dae8e9;fill-opacity:1;stroke:#040000;stroke-width:0"
       id="rect1098"
       width="22.638094"
       height="25.112768"
       x="32.140591"
       y="22.952005" />
    <rect
       style="fill:#f6f9f9;fill-opacity:1;stroke:#040000;stroke-width:0"
       id="rect1098-8"
       width="20.437595"
       height="18.571051"
       x="11.999146"
       y="29.493719" />
    <circle
       style="fill:#f6f9f9;fill-opacity:1;stroke:#040000;stroke-width:0"
       id="path234"
       cy="21.583948"
       cx="25.089155"
       r="12.557772" />
    <circle
       style="fill:#f6f9f9;fill-opacity:1;stroke:#040000;stroke-width:0"
       id="path234-91-9"
       cy="35.503681"
       cx="13.085804"
       r="12.557772" />
    <g
       inkscape:label="Lager 1"
       inkscape:groupmode="layer"
       id="layer1-3"
       transform="matrix(0.54912325,0,0,0.54912325,23.139027,15.951516)">
      <path
         id="path3414"
         style="fill:#ff9800;stroke:#000000;stroke-width:0"
         d="M 50.50162,48.617123 A 18.810963,18.810967 0 0 1 31.732125,67.428044 18.810963,18.810967 0 0 1 12.879876,48.700061 18.810963,18.810967 0 0 1 31.56625,29.806568 18.810963,18.810967 0 0 1 50.500889,48.451248" />
      <path
         id="path2217"
         style="fill:url(#radialGradient4262);stroke:#536756;stroke-width:0"
         d="M 47.387869,48.617119 A 15.697212,15.69721 0 0 1 31.725261,64.314292 15.697212,15.69721 0 0 1 15.993597,48.686329 15.697212,15.69721 0 0 1 31.586843,32.920252 15.697212,15.69721 0 0 1 47.387258,48.478702" />
      <path
         id="rect4340"
         style="fill:#ff9800;stroke:#000000;stroke-width:0"
         d="m 60.935258,48.617121 c 0,0.60262 -0.40049,1.087761 -0.897959,1.087761 h -6.462191 c -0.497469,0 -0.897959,-0.485141 -0.897959,-1.087761 0,-0.602619 0.40049,-1.087761 0.897959,-1.087761 h 6.462191 c 0.497469,0 0.897959,0.485142 0.897959,1.087761 z" />
      <path
         id="rect4340-5"
         style="fill:#ff9800;stroke:#000000;stroke-width:0"
         d="m 57.027959,63.220803 c -0.300926,0.522105 -0.890169,0.742438 -1.321173,0.49402 l -5.598793,-3.226982 c -0.431004,-0.248418 -0.535724,-0.868731 -0.234797,-1.390836 0.300926,-0.522105 0.89017,-0.742439 1.321173,-0.494021 l 5.598793,3.226982 c 0.431005,0.248419 0.535723,0.868732 0.234797,1.390837 z" />
      <path
         id="rect4340-0"
         style="fill:#ff9800;stroke:#000000;stroke-width:0"
         d="m 46.350167,73.922167 c -0.521442,0.302076 -1.141984,0.198724 -1.391351,-0.23173 l -3.239317,-5.591666 c -0.249367,-0.430455 -0.03033,-1.020182 0.491107,-1.322259 0.521441,-0.302077 1.141983,-0.198725 1.391351,0.23173 l 3.239316,5.591665 c 0.249368,0.430455 0.03034,1.020183 -0.491106,1.32226 z" />
      <path
         id="rect4340-02"
         style="fill:#ff9800;stroke:#000000;stroke-width:0"
         d="m 31.755125,77.861646 c -0.602617,0.0013 -1.088641,-0.398091 -1.089738,-0.895559 l -0.01425,-6.462174 c -0.0011,-0.497468 0.483161,-0.899026 1.085779,-0.900355 0.602619,-0.0013 1.088642,0.398091 1.089739,0.895559 l 0.01425,6.462174 c 0.0011,0.497468 -0.483161,0.899027 -1.08578,0.900355 z" />
      <path
         id="rect4340-6"
         style="fill:#ff9800;stroke:#000000;stroke-width:0"
         d="m 17.142856,73.986549 c -0.522768,-0.299774 -0.744399,-0.888531 -0.496932,-1.320081 l 3.214632,-5.605893 c 0.247468,-0.431551 0.867548,-0.537637 1.390316,-0.237862 0.522768,0.299775 0.744399,0.888531 0.496931,1.320082 l -3.214632,5.605892 c -0.247467,0.43155 -0.867548,0.537637 -1.390315,0.237862 z" />
      <path
         id="rect4340-4"
         style="fill:#ff9800;stroke:#000000;stroke-width:0"
         d="M 6.4179901,63.332376 C 6.1147646,62.811602 6.2167484,62.190834 6.6466525,61.940518 l 5.5845125,-3.251635 c 0.429904,-0.250316 1.020113,-0.03258 1.323338,0.488191 0.303225,0.520773 0.201242,1.141542 -0.228662,1.391858 l -5.5845122,3.251635 c -0.4299041,0.250316 -1.0201136,0.03258 -1.3233387,-0.488191 z" />
      <path
         id="rect4340-66"
         style="fill:#ff9800;stroke:#000000;stroke-width:0"
         d="m 2.4463452,48.746061 c -0.00266,-0.602615 0.3956898,-1.089517 0.8931543,-1.09171 l 6.4621272,-0.02849 c 0.4974643,-0.0022 0.9000893,0.481177 0.9027463,1.083792 0.0027,0.602614 -0.39569,1.089516 -0.8931545,1.09171 l -6.4621272,0.02849 c -0.4974644,0.0022 -0.9000892,-0.481177 -0.9027461,-1.083792 z" />
      <path
         id="rect4340-9"
         style="fill:#ff9800;stroke:#000000;stroke-width:0"
         d="m 6.2892125,34.125298 c 0.2986211,-0.523427 0.8868877,-0.746356 1.3189824,-0.499841 l 5.6129681,3.202265 c 0.432094,0.246515 0.539547,0.86636 0.240926,1.389787 -0.298622,0.523427 -0.886887,0.746356 -1.318982,0.499841 L 6.5301394,35.515086 C 6.0980448,35.268571 5.9905909,34.648726 6.2892125,34.125298 Z" />
      <path
         id="rect4340-3"
         style="fill:#ff9800;stroke:#000000;stroke-width:0"
         d="m 16.919735,23.376956 c 0.520104,-0.304373 1.141096,-0.203758 1.392359,0.225594 l 3.263937,5.577331 c 0.251263,0.429351 0.03483,1.020038 -0.485273,1.324411 -0.520103,0.304372 -1.141095,0.203758 -1.392358,-0.225593 l -3.263937,-5.577331 c -0.251263,-0.429352 -0.03483,-1.02004 0.485272,-1.324412 z" />
      <path
         id="rect4340-31"
         style="fill:#ff9800;stroke:#000000;stroke-width:0"
         d="m 31.497239,19.373169 c 0.602607,-0.004 1.090386,0.393287 1.093676,0.890745 l 0.04274,6.46205 c 0.0033,0.497458 -0.479191,0.901148 -1.081798,0.905133 -0.602607,0.004 -1.090387,-0.393287 -1.093677,-0.890745 l -0.04274,-6.462049 c -0.0033,-0.497459 0.479192,-0.901148 1.081799,-0.905134 z" />
      <path
         id="rect4340-7"
         style="fill:#ff9800;stroke:#000000;stroke-width:0"
         d="m 46.126445,23.183793 c 0.524084,0.297466 0.74831,0.88524 0.502748,1.317877 l -3.189883,5.620014 c -0.245562,0.432637 -0.865169,0.541457 -1.389253,0.24399 -0.524084,-0.297467 -0.748309,-0.88524 -0.502747,-1.317877 l 3.189882,-5.620014 c 0.245562,-0.432637 0.865169,-0.541457 1.389253,-0.24399 z" />
      <path
         id="rect4340-67"
         style="fill:#ff9800;stroke:#000000;stroke-width:0"
         d="m 56.898198,33.790588 c 0.305518,0.519431 0.206273,1.140644 -0.222523,1.392853 l -5.570122,3.276226 c -0.428796,0.252208 -1.01996,0.03708 -1.325478,-0.482352 -0.305519,-0.519432 -0.206273,-1.140644 0.222523,-1.392853 l 5.570122,-3.276225 c 0.428796,-0.252209 1.01996,-0.03708 1.325478,0.482351 z" />
    </g>
    <circle
       style="fill:#f6f9f9;fill-opacity:1;stroke:#040000;stroke-width:0"
       id="path234-91"
       cy="35.509487"
       cx="32.142204"
       r="12.557772" />
  </g>
</svg>
