<?xml version="1.0" encoding="UTF-8" standalone="no"?>
<!-- Created with Inkscape (http://www.inkscape.org/) -->

<svg
   width="269"
   height="231"
   viewBox="0 0 71.172945 61.118725"
   version="1.1"
   id="svg5"
   inkscape:version="1.2.2 (732a01da63, 2022-12-09)"
   sodipodi:docname="Cloud - rainy - sunny.svg"
   inkscape:export-filename="Cloud - rainy - sunny.png"
   inkscape:export-xdpi="96"
   inkscape:export-ydpi="96"
   xmlns:inkscape="http://www.inkscape.org/namespaces/inkscape"
   xmlns:sodipodi="http://sodipodi.sourceforge.net/DTD/sodipodi-0.dtd"
   xmlns:xlink="http://www.w3.org/1999/xlink"
   xmlns="http://www.w3.org/2000/svg"
   xmlns:svg="http://www.w3.org/2000/svg">
  <sodipodi:namedview
     id="namedview7"
     pagecolor="#ffffff"
     bordercolor="#000000"
     borderopacity="0.25"
     inkscape:showpageshadow="2"
     inkscape:pageopacity="0.0"
     inkscape:pagecheckerboard="0"
     inkscape:deskcolor="#d1d1d1"
     inkscape:document-units="mm"
     showgrid="false"
     inkscape:zoom="2.8284272"
     inkscape:cx="84.145705"
     inkscape:cy="96.69685"
     inkscape:window-width="1718"
     inkscape:window-height="1360"
     inkscape:window-x="1913"
     inkscape:window-y="0"
     inkscape:window-maximized="0"
     inkscape:current-layer="layer1" />
  <defs
     id="defs2">
    <radialGradient
       inkscape:collect="always"
       xlink:href="#linearGradient4260"
       id="radialGradient4262"
       cx="35.586456"
       cy="35.58646"
       fx="35.586456"
       fy="35.58646"
       r="17.835016"
       gradientUnits="userSpaceOnUse"
       gradientTransform="matrix(0.92719051,0,0,0.92719036,2.5910305,2.5910363)" />
    <linearGradient
       inkscape:collect="always"
       id="linearGradient4260">
      <stop
         style="stop-color:#ffff00;stop-opacity:1;"
         offset="0"
         id="stop4256" />
      <stop
         style="stop-color:#ffdd05;stop-opacity:1;"
         offset="1"
         id="stop4258" />
    </linearGradient>
  </defs>
  <g
     inkscape:label="Lager 1"
     inkscape:groupmode="layer"
     id="layer1">
    <path
       style="fill:#16adff;fill-opacity:1;stroke:#000000;stroke-width:0"
       id="path1755-6-37"
       sodipodi:type="arc"
       sodipodi:cx="49.484951"
       sodipodi:cy="47.852905"
       sodipodi:rx="1.9607714"
       sodipodi:ry="1.960771"
       sodipodi:start="0"
       sodipodi:end="6.2743672"
       sodipodi:open="true"
       sodipodi:arc-type="arc"
       d="m 51.445722,47.852905 a 1.9607714,1.960771 0 0 1 -1.956448,1.960766 1.9607714,1.960771 0 0 1 -1.965075,-1.952121 1.9607714,1.960771 0 0 1 1.947784,-1.969373 1.9607714,1.960771 0 0 1 1.973663,1.943438" />
    <path
       style="fill:#16adff;fill-opacity:1;stroke:#000000;stroke-width:0"
       d="m 47.798678,46.85236 3.416561,0.08029 -1.683046,-3.201995 z"
       id="path2817-2-7"
       sodipodi:nodetypes="cccc" />
    <path
       style="fill:#ffffff;fill-opacity:1;stroke:#000000;stroke-width:0"
       id="path3537-1-75"
       sodipodi:type="arc"
       sodipodi:cx="49.455467"
       sodipodi:cy="47.825111"
       sodipodi:rx="1.7045341"
       sodipodi:ry="1.7045342"
       sodipodi:start="0"
       sodipodi:end="1.7557802"
       sodipodi:arc-type="arc"
       d="m 51.160001,47.825111 a 1.7045341,1.7045342 0 0 1 -0.615718,1.311457 1.7045341,1.7045342 0 0 1 -1.402332,0.363997"
       sodipodi:open="true" />
    <path
       style="fill:#16adff;fill-opacity:1;stroke:#000000;stroke-width:0"
       id="path3543-3-4"
       sodipodi:type="arc"
       sodipodi:cx="63.847054"
       sodipodi:cy="14.516035"
       sodipodi:rx="4.661448"
       sodipodi:ry="4.7114367"
       sodipodi:start="0"
       sodipodi:end="0.69665758"
       sodipodi:open="true"
       sodipodi:arc-type="arc"
       d="m 68.508502,14.516035 a 4.661448,4.7114367 0 0 1 -1.086159,3.02313"
       transform="rotate(30.867273)" />
    <circle
       style="fill:#dae8e9;fill-opacity:1;stroke:#040000;stroke-width:0"
       id="path234-9"
       cy="27.972681"
       cx="57.679165"
       r="13.229166" />
    <circle
       style="fill:#dae8e9;fill-opacity:1;stroke:#040000;stroke-width:0"
       id="path234-9-1"
       cy="18.831589"
       cx="48.69994"
       r="13.229166" />
    <rect
       style="fill:#dae8e9;fill-opacity:1;stroke:#040000;stroke-width:0"
       id="rect1098"
       width="23.848427"
       height="26.455408"
       x="33.830738"
       y="14.743516" />
    <path
       id="rect4340-31-1"
       style="fill:#16adff;fill-opacity:1;stroke:#000000;stroke-width:0"
       d="m 63.116991,35.652759 c 0.392047,-0.0027 0.709389,0.255868 0.71153,0.579506 l 0.0278,4.204102 c 0.0021,0.32364 -0.311755,0.586274 -0.703801,0.588867 -0.392045,0.0027 -0.709388,-0.255867 -0.711529,-0.579504 l -0.0278,-4.204105 c -0.0021,-0.323637 0.311755,-0.586272 0.7038,-0.588866 z" />
    <path
       id="rect4340-31-4"
       style="fill:#16adff;fill-opacity:1;stroke:#000000;stroke-width:0"
       d="m 56.662786,54.116694 c 0.392046,-0.0027 0.709386,0.255867 0.711528,0.579504 l 0.0278,4.204105 c 0.0021,0.323637 -0.311753,0.586272 -0.703801,0.588865 -0.392047,0.0027 -0.709388,-0.255867 -0.711528,-0.579505 l -0.0278,-4.204104 c -0.0021,-0.323638 0.311756,-0.586272 0.703801,-0.588865 z" />
    <path
       style="fill:#16adff;fill-opacity:1;stroke:#000000;stroke-width:0"
       id="path1755"
       sodipodi:type="arc"
       sodipodi:cx="42.925003"
       sodipodi:cy="37.655472"
       sodipodi:rx="1.9607714"
       sodipodi:ry="1.960771"
       sodipodi:start="0"
       sodipodi:end="6.2743672"
       sodipodi:open="true"
       sodipodi:arc-type="arc"
       d="m 44.885774,37.655472 a 1.9607714,1.960771 0 0 1 -1.956448,1.960766 1.9607714,1.960771 0 0 1 -1.965075,-1.952121 1.9607714,1.960771 0 0 1 1.947784,-1.969373 1.9607714,1.960771 0 0 1 1.973663,1.943438" />
    <path
       style="fill:#16adff;fill-opacity:1;stroke:#000000;stroke-width:0"
       d="m 41.238728,36.654924 3.41656,0.08029 -1.683043,-3.201995 z"
       id="path2817"
       sodipodi:nodetypes="cccc" />
    <path
       style="fill:#ffffff;fill-opacity:1;stroke:#000000;stroke-width:0"
       id="path3537"
       sodipodi:type="arc"
       sodipodi:cx="42.895527"
       sodipodi:cy="37.62767"
       sodipodi:rx="1.7045341"
       sodipodi:ry="1.7045342"
       sodipodi:start="0"
       sodipodi:end="1.7557802"
       sodipodi:arc-type="arc"
       d="m 44.600061,37.62767 a 1.7045341,1.7045342 0 0 1 -0.615719,1.311457 1.7045341,1.7045342 0 0 1 -1.402331,0.363997"
       sodipodi:open="true" />
    <path
       style="fill:#16adff;fill-opacity:1;stroke:#000000;stroke-width:0"
       id="path3543"
       sodipodi:type="arc"
       sodipodi:cx="52.984486"
       sodipodi:cy="9.1285686"
       sodipodi:rx="4.661448"
       sodipodi:ry="4.7114367"
       sodipodi:start="0"
       sodipodi:end="0.69665758"
       sodipodi:open="true"
       sodipodi:arc-type="arc"
       d="M 57.645934,9.1285686 A 4.661448,4.7114367 0 0 1 56.559775,12.151698"
       transform="rotate(30.867273)" />
    <path
       style="fill:#16adff;fill-opacity:1;stroke:#000000;stroke-width:0"
       id="path1755-6"
       sodipodi:type="arc"
       sodipodi:cx="59.768448"
       sodipodi:cy="46.675392"
       sodipodi:rx="1.9607714"
       sodipodi:ry="1.960771"
       sodipodi:start="0"
       sodipodi:end="6.2743672"
       sodipodi:open="true"
       sodipodi:arc-type="arc"
       d="m 61.729219,46.675392 a 1.9607714,1.960771 0 0 1 -1.956449,1.960766 1.9607714,1.960771 0 0 1 -1.965075,-1.952121 1.9607714,1.960771 0 0 1 1.947785,-1.969373 1.9607714,1.960771 0 0 1 1.973663,1.943438" />
    <path
       style="fill:#16adff;fill-opacity:1;stroke:#000000;stroke-width:0"
       d="m 58.082174,45.674846 3.416561,0.08029 -1.683046,-3.201995 z"
       id="path2817-2"
       sodipodi:nodetypes="cccc" />
    <path
       style="fill:#ffffff;fill-opacity:1;stroke:#000000;stroke-width:0"
       id="path3537-1"
       sodipodi:type="arc"
       sodipodi:cx="59.738964"
       sodipodi:cy="46.647598"
       sodipodi:rx="1.7045341"
       sodipodi:ry="1.7045342"
       sodipodi:start="0"
       sodipodi:end="1.7557802"
       sodipodi:arc-type="arc"
       d="m 61.443498,46.647598 a 1.7045341,1.7045342 0 0 1 -0.615719,1.311457 1.7045341,1.7045342 0 0 1 -1.402331,0.363997"
       sodipodi:open="true" />
    <path
       style="fill:#16adff;fill-opacity:1;stroke:#000000;stroke-width:0"
       id="path3543-3"
       sodipodi:type="arc"
       sodipodi:cx="72.069847"
       sodipodi:cy="8.2293472"
       sodipodi:rx="4.661448"
       sodipodi:ry="4.7114367"
       sodipodi:start="0"
       sodipodi:end="0.69665758"
       sodipodi:open="true"
       sodipodi:arc-type="arc"
       d="M 76.731295,8.2293472 A 4.661448,4.7114367 0 0 1 75.645137,11.252477"
       transform="rotate(30.867273)" />
    <path
       style="fill:#16adff;fill-opacity:1;stroke:#000000;stroke-width:0"
       id="path1755-6-7"
       sodipodi:type="arc"
       sodipodi:cx="61.432129"
       sodipodi:cy="30.469381"
       sodipodi:rx="1.9607714"
       sodipodi:ry="1.960771"
       sodipodi:start="0"
       sodipodi:end="6.2743672"
       sodipodi:open="true"
       sodipodi:arc-type="arc"
       d="m 63.3929,30.469381 a 1.9607714,1.960771 0 0 1 -1.956449,1.960767 1.9607714,1.960771 0 0 1 -1.965074,-1.952122 1.9607714,1.960771 0 0 1 1.947784,-1.969373 1.9607714,1.960771 0 0 1 1.973663,1.943438" />
    <path
       style="fill:#16adff;fill-opacity:1;stroke:#000000;stroke-width:0"
       d="m 59.745855,29.468835 3.416563,0.08029 -1.683046,-3.201994 z"
       id="path2817-2-3"
       sodipodi:nodetypes="cccc" />
    <path
       style="fill:#ffffff;fill-opacity:1;stroke:#000000;stroke-width:0"
       id="path3537-1-2"
       sodipodi:type="arc"
       sodipodi:cx="61.402657"
       sodipodi:cy="30.441584"
       sodipodi:rx="1.7045341"
       sodipodi:ry="1.7045342"
       sodipodi:start="0"
       sodipodi:end="1.7557802"
       sodipodi:arc-type="arc"
       d="M 63.107191,30.441584 A 1.7045341,1.7045342 0 0 1 62.491472,31.75304 1.7045341,1.7045342 0 0 1 61.08914,32.117037"
       sodipodi:open="true" />
    <path
       style="fill:#16adff;fill-opacity:1;stroke:#000000;stroke-width:0"
       id="path3543-3-3"
       sodipodi:type="arc"
       sodipodi:cx="65.183372"
       sodipodi:cy="-6.5347705"
       sodipodi:rx="4.661448"
       sodipodi:ry="4.7114367"
       sodipodi:start="0"
       sodipodi:end="0.69665758"
       sodipodi:open="true"
       sodipodi:arc-type="arc"
       d="M 69.84482,-6.5347705 A 4.661448,4.7114367 0 0 1 68.758662,-3.511641"
       transform="rotate(30.867273)" />
    <path
       style="fill:#16adff;fill-opacity:1;stroke:#000000;stroke-width:0"
       id="path1755-63"
       sodipodi:type="arc"
       sodipodi:cx="47.548359"
       sodipodi:cy="56.891407"
       sodipodi:rx="1.9607714"
       sodipodi:ry="1.960771"
       sodipodi:start="0"
       sodipodi:end="6.2743672"
       sodipodi:open="true"
       sodipodi:arc-type="arc"
       d="m 49.50913,56.891407 a 1.9607714,1.960771 0 0 1 -1.956449,1.960766 1.9607714,1.960771 0 0 1 -1.965074,-1.952121 1.9607714,1.960771 0 0 1 1.947784,-1.969373 1.9607714,1.960771 0 0 1 1.973663,1.943438" />
    <path
       style="fill:#16adff;fill-opacity:1;stroke:#000000;stroke-width:0"
       d="m 45.862079,55.890862 3.416558,0.08029 -1.683044,-3.201994 z"
       id="path2817-1"
       sodipodi:nodetypes="cccc" />
    <path
       style="fill:#ffffff;fill-opacity:1;stroke:#000000;stroke-width:0"
       id="path3537-5"
       sodipodi:type="arc"
       sodipodi:cx="47.518875"
       sodipodi:cy="56.863613"
       sodipodi:rx="1.7045341"
       sodipodi:ry="1.7045342"
       sodipodi:start="0"
       sodipodi:end="1.7557802"
       sodipodi:arc-type="arc"
       d="M 49.223409,56.863613 A 1.7045341,1.7045342 0 0 1 48.60769,58.17507 1.7045341,1.7045342 0 0 1 47.205359,58.539067"
       sodipodi:open="true" />
    <path
       style="fill:#16adff;fill-opacity:1;stroke:#000000;stroke-width:0"
       id="path3543-8"
       sodipodi:type="arc"
       sodipodi:cx="66.821968"
       sodipodi:cy="23.267878"
       sodipodi:rx="4.661448"
       sodipodi:ry="4.7114367"
       sodipodi:start="0"
       sodipodi:end="0.69665758"
       sodipodi:open="true"
       sodipodi:arc-type="arc"
       d="m 71.483416,23.267878 a 4.661448,4.7114367 0 0 1 -1.086159,3.023129"
       transform="rotate(30.867273)" />
    <path
       style="fill:#16adff;fill-opacity:1;stroke:#000000;stroke-width:0"
       id="path1755-5"
       sodipodi:type="arc"
       sodipodi:cx="64.450455"
       sodipodi:cy="58.279156"
       sodipodi:rx="1.9607714"
       sodipodi:ry="1.960771"
       sodipodi:start="0"
       sodipodi:end="6.2743672"
       sodipodi:open="true"
       sodipodi:arc-type="arc"
       d="m 66.411226,58.279156 a 1.9607714,1.960771 0 0 1 -1.956449,1.960766 1.9607714,1.960771 0 0 1 -1.965075,-1.952121 1.9607714,1.960771 0 0 1 1.947785,-1.969373 1.9607714,1.960771 0 0 1 1.973663,1.943438" />
    <path
       style="fill:#16adff;fill-opacity:1;stroke:#000000;stroke-width:0"
       d="m 62.764177,57.278617 3.416563,0.08029 -1.683044,-3.201994 z"
       id="path2817-5"
       sodipodi:nodetypes="cccc" />
    <path
       style="fill:#ffffff;fill-opacity:1;stroke:#000000;stroke-width:0"
       id="path3537-8"
       sodipodi:type="arc"
       sodipodi:cx="64.420975"
       sodipodi:cy="58.251366"
       sodipodi:rx="1.7045341"
       sodipodi:ry="1.7045342"
       sodipodi:start="0"
       sodipodi:end="1.7557802"
       sodipodi:arc-type="arc"
       d="m 66.125509,58.251366 a 1.7045341,1.7045342 0 0 1 -0.615719,1.311456 1.7045341,1.7045342 0 0 1 -1.402331,0.363997"
       sodipodi:open="true" />
    <path
       style="fill:#16adff;fill-opacity:1;stroke:#000000;stroke-width:0"
       id="path3543-30"
       sodipodi:type="arc"
       sodipodi:cx="82.04203"
       sodipodi:cy="15.787423"
       sodipodi:rx="4.661448"
       sodipodi:ry="4.7114367"
       sodipodi:start="0"
       sodipodi:end="0.69665758"
       sodipodi:open="true"
       sodipodi:arc-type="arc"
       d="m 86.703478,15.787423 a 4.661448,4.7114367 0 0 1 -1.086158,3.02313"
       transform="rotate(30.867273)" />
    <path
       id="rect4340-31-5"
       style="fill:#16adff;fill-opacity:1;stroke:#000000;stroke-width:0"
       d="m 7.783356,33.336742 c 0.392048,-0.0027 0.709389,0.255866 0.711529,0.579505 l 0.0278,4.204103 c 0.0021,0.323639 -0.311754,0.586272 -0.7038,0.588865 -0.392047,0.0027 -0.709388,-0.255866 -0.711528,-0.579505 l -0.0278,-4.204102 c -0.0021,-0.323639 0.311753,-0.586272 0.703798,-0.588866 z" />
    <path
       id="rect4340-31-1-8"
       style="fill:#16adff;fill-opacity:1;stroke:#000000;stroke-width:0"
       d="m 19.967477,38.689524 c 0.392047,-0.0027 0.709389,0.255868 0.71153,0.579506 l 0.0278,4.204102 c 0.0021,0.32364 -0.311755,0.586274 -0.703801,0.588867 -0.392045,0.0027 -0.709388,-0.255867 -0.711529,-0.579504 l -0.0278,-4.204105 c -0.0021,-0.323637 0.311755,-0.586272 0.7038,-0.588866 z" />
    <path
       id="rect4340-31-4-4"
       style="fill:#16adff;fill-opacity:1;stroke:#000000;stroke-width:0"
       d="m 11.683887,54.221486 c 0.392046,-0.0027 0.709386,0.255867 0.711528,0.579504 l 0.0278,4.204105 c 0.0021,0.323637 -0.311753,0.586272 -0.703801,0.588865 -0.392047,0.0027 -0.709388,-0.255867 -0.711528,-0.579505 l -0.0278,-4.204104 c -0.0021,-0.323638 0.311756,-0.586272 0.703801,-0.588865 z" />
    <path
       style="fill:#16adff;fill-opacity:1;stroke:#000000;stroke-width:0"
       id="path1755-6-6"
       sodipodi:type="arc"
       sodipodi:cx="13.576229"
       sodipodi:cy="43.229866"
       sodipodi:rx="1.9607714"
       sodipodi:ry="1.960771"
       sodipodi:start="0"
       sodipodi:end="6.2743672"
       sodipodi:open="true"
       sodipodi:arc-type="arc"
       d="m 15.537001,43.229866 a 1.9607714,1.960771 0 0 1 -1.956449,1.960766 1.9607714,1.960771 0 0 1 -1.965075,-1.952121 1.9607714,1.960771 0 0 1 1.947784,-1.969373 1.9607714,1.960771 0 0 1 1.973663,1.943438" />
    <path
       style="fill:#16adff;fill-opacity:1;stroke:#000000;stroke-width:0"
       d="m 11.889952,42.22932 3.416561,0.08029 -1.683046,-3.201995 z"
       id="path2817-2-5"
       sodipodi:nodetypes="cccc" />
    <path
       style="fill:#ffffff;fill-opacity:1;stroke:#000000;stroke-width:0"
       id="path3537-1-3"
       sodipodi:type="arc"
       sodipodi:cx="13.546741"
       sodipodi:cy="43.202072"
       sodipodi:rx="1.7045341"
       sodipodi:ry="1.7045342"
       sodipodi:start="0"
       sodipodi:end="1.7557802"
       sodipodi:arc-type="arc"
       d="m 15.251275,43.202072 a 1.7045341,1.7045342 0 0 1 -0.615719,1.311457 1.7045341,1.7045342 0 0 1 -1.402332,0.363997"
       sodipodi:open="true" />
    <path
       style="fill:#16adff;fill-opacity:1;stroke:#000000;stroke-width:0"
       id="path3543-3-12"
       sodipodi:type="arc"
       sodipodi:cx="30.652651"
       sodipodi:cy="28.970821"
       sodipodi:rx="4.661448"
       sodipodi:ry="4.7114367"
       sodipodi:start="0"
       sodipodi:end="0.69665758"
       sodipodi:open="true"
       sodipodi:arc-type="arc"
       d="m 35.314099,28.970821 a 4.661448,4.7114367 0 0 1 -1.086159,3.02313"
       transform="rotate(30.867273)" />
    <path
       style="fill:#16adff;fill-opacity:1;stroke:#000000;stroke-width:0"
       id="path1755-6-7-5"
       sodipodi:type="arc"
       sodipodi:cx="21.691713"
       sodipodi:cy="35.625568"
       sodipodi:rx="1.9607714"
       sodipodi:ry="1.960771"
       sodipodi:start="0"
       sodipodi:end="6.2743672"
       sodipodi:open="true"
       sodipodi:arc-type="arc"
       d="m 23.652485,35.625568 a 1.9607714,1.960771 0 0 1 -1.956449,1.960767 1.9607714,1.960771 0 0 1 -1.965075,-1.952121 1.9607714,1.960771 0 0 1 1.947785,-1.969374 1.9607714,1.960771 0 0 1 1.973663,1.943438" />
    <path
       style="fill:#16adff;fill-opacity:1;stroke:#000000;stroke-width:0"
       d="m 20.005438,34.625021 3.416563,0.08029 -1.683046,-3.201994 z"
       id="path2817-2-3-5"
       sodipodi:nodetypes="cccc" />
    <path
       style="fill:#ffffff;fill-opacity:1;stroke:#000000;stroke-width:0"
       id="path3537-1-2-2"
       sodipodi:type="arc"
       sodipodi:cx="21.662241"
       sodipodi:cy="35.597771"
       sodipodi:rx="1.7045341"
       sodipodi:ry="1.7045342"
       sodipodi:start="0"
       sodipodi:end="1.7557802"
       sodipodi:arc-type="arc"
       d="m 23.366775,35.597771 a 1.7045341,1.7045342 0 0 1 -0.615719,1.311456 1.7045341,1.7045342 0 0 1 -1.402331,0.363997"
       sodipodi:open="true" />
    <path
       style="fill:#16adff;fill-opacity:1;stroke:#000000;stroke-width:0"
       id="path3543-3-3-9"
       sodipodi:type="arc"
       sodipodi:cx="33.717251"
       sodipodi:cy="18.279945"
       sodipodi:rx="4.661448"
       sodipodi:ry="4.7114367"
       sodipodi:start="0"
       sodipodi:end="0.69665758"
       sodipodi:open="true"
       sodipodi:arc-type="arc"
       d="m 38.378699,18.279945 a 4.661448,4.7114367 0 0 1 -1.086159,3.02313"
       transform="rotate(30.867273)" />
    <path
       style="fill:#16adff;fill-opacity:1;stroke:#000000;stroke-width:0"
       id="path1755-4-3"
       sodipodi:type="arc"
       sodipodi:cx="7.3070312"
       sodipodi:cy="49.317009"
       sodipodi:rx="1.9607714"
       sodipodi:ry="1.960771"
       sodipodi:start="0"
       sodipodi:end="6.2743672"
       sodipodi:open="true"
       sodipodi:arc-type="arc"
       d="M 9.2678026,49.317009 A 1.9607714,1.960771 0 0 1 7.3113537,51.277775 1.9607714,1.960771 0 0 1 5.3462788,49.325654 1.9607714,1.960771 0 0 1 7.2940635,47.356281 1.9607714,1.960771 0 0 1 9.2677264,49.299719" />
    <path
       style="fill:#16adff;fill-opacity:1;stroke:#000000;stroke-width:0"
       d="M 5.620758,48.316461 9.03732,48.396751 7.354275,45.194757 Z"
       id="path2817-24-9"
       sodipodi:nodetypes="cccc" />
    <path
       style="fill:#ffffff;fill-opacity:1;stroke:#000000;stroke-width:0"
       id="path3537-6-2"
       sodipodi:type="arc"
       sodipodi:cx="7.2775474"
       sodipodi:cy="49.289215"
       sodipodi:rx="1.7045341"
       sodipodi:ry="1.7045342"
       sodipodi:start="0"
       sodipodi:end="1.7557802"
       sodipodi:arc-type="arc"
       d="M 8.9820814,49.289215 A 1.7045341,1.7045342 0 0 1 8.3663626,50.600671 1.7045341,1.7045342 0 0 1 6.9640312,50.964669"
       sodipodi:open="true" />
    <path
       style="fill:#16adff;fill-opacity:1;stroke:#000000;stroke-width:0"
       id="path3543-7-1"
       sodipodi:type="arc"
       sodipodi:cx="28.394459"
       sodipodi:cy="37.412182"
       sodipodi:rx="4.661448"
       sodipodi:ry="4.7114367"
       sodipodi:start="0"
       sodipodi:end="0.69665758"
       sodipodi:open="true"
       sodipodi:arc-type="arc"
       d="m 33.055907,37.412182 a 4.661448,4.7114367 0 0 1 -1.086159,3.023129"
       transform="rotate(30.867273)" />
    <path
       style="fill:#16adff;fill-opacity:1;stroke:#000000;stroke-width:0"
       id="path1755-5-4"
       sodipodi:type="arc"
       sodipodi:cx="18.929092"
       sodipodi:cy="54.663734"
       sodipodi:rx="1.9607714"
       sodipodi:ry="1.960771"
       sodipodi:start="0"
       sodipodi:end="6.2743672"
       sodipodi:open="true"
       sodipodi:arc-type="arc"
       d="m 20.889864,54.663734 a 1.9607714,1.960771 0 0 1 -1.956449,1.960767 1.9607714,1.960771 0 0 1 -1.965075,-1.952121 1.9607714,1.960771 0 0 1 1.947785,-1.969374 1.9607714,1.960771 0 0 1 1.973663,1.943438" />
    <path
       style="fill:#16adff;fill-opacity:1;stroke:#000000;stroke-width:0"
       d="m 17.242816,53.663193 3.416563,0.08029 -1.683044,-3.201994 z"
       id="path2817-5-7"
       sodipodi:nodetypes="cccc" />
    <path
       style="fill:#ffffff;fill-opacity:1;stroke:#000000;stroke-width:0"
       id="path3537-8-0"
       sodipodi:type="arc"
       sodipodi:cx="18.899612"
       sodipodi:cy="54.635944"
       sodipodi:rx="1.7045341"
       sodipodi:ry="1.7045342"
       sodipodi:start="0"
       sodipodi:end="1.7557802"
       sodipodi:arc-type="arc"
       d="m 20.604146,54.635944 a 1.7045341,1.7045342 0 0 1 -0.615718,1.311457 1.7045341,1.7045342 0 0 1 -1.402332,0.363997"
       sodipodi:open="true" />
    <path
       style="fill:#16adff;fill-opacity:1;stroke:#000000;stroke-width:0"
       id="path3543-30-4"
       sodipodi:type="arc"
       sodipodi:cx="41.113506"
       sodipodi:cy="36.038876"
       sodipodi:rx="4.661448"
       sodipodi:ry="4.7114367"
       sodipodi:start="0"
       sodipodi:end="0.69665758"
       sodipodi:open="true"
       sodipodi:arc-type="arc"
       d="m 45.774954,36.038876 a 4.661448,4.7114367 0 0 1 -1.086158,3.023129"
       transform="rotate(30.867273)" />
    <path
       id="rect4340-31-4-7"
       style="fill:#16adff;fill-opacity:1;stroke:#000000;stroke-width:0"
       d="m 27.336501,53.896438 c 0.392046,-0.0027 0.709385,0.255866 0.711527,0.579504 l 0.0278,4.204104 c 0.0021,0.323639 -0.311753,0.586272 -0.703802,0.588866 -0.392047,0.0027 -0.709387,-0.255867 -0.711527,-0.579505 l -0.0278,-4.204105 c -0.0021,-0.323637 0.311756,-0.586271 0.703802,-0.588864 z" />
    <path
       style="fill:#16adff;fill-opacity:1;stroke:#000000;stroke-width:0"
       id="path1755-6-3"
       sodipodi:type="arc"
       sodipodi:cx="25.282785"
       sodipodi:cy="50.73661"
       sodipodi:rx="1.9607714"
       sodipodi:ry="1.960771"
       sodipodi:start="0"
       sodipodi:end="6.2743672"
       sodipodi:open="true"
       sodipodi:arc-type="arc"
       d="m 27.243557,50.73661 a 1.9607714,1.960771 0 0 1 -1.956449,1.960767 1.9607714,1.960771 0 0 1 -1.965075,-1.952121 1.9607714,1.960771 0 0 1 1.947785,-1.969374 1.9607714,1.960771 0 0 1 1.973663,1.943438" />
    <path
       style="fill:#16adff;fill-opacity:1;stroke:#000000;stroke-width:0"
       d="m 23.596513,49.736073 3.416562,0.08029 -1.683046,-3.201996 z"
       id="path2817-2-8"
       sodipodi:nodetypes="cccc" />
    <path
       style="fill:#ffffff;fill-opacity:1;stroke:#000000;stroke-width:0"
       id="path3537-1-7"
       sodipodi:type="arc"
       sodipodi:cx="25.253302"
       sodipodi:cy="50.70882"
       sodipodi:rx="1.7045341"
       sodipodi:ry="1.7045342"
       sodipodi:start="0"
       sodipodi:end="1.7557802"
       sodipodi:arc-type="arc"
       d="m 26.957836,50.70882 a 1.7045341,1.7045342 0 0 1 -0.615719,1.311457 1.7045341,1.7045342 0 0 1 -1.402331,0.363997"
       sodipodi:open="true" />
    <path
       style="fill:#16adff;fill-opacity:1;stroke:#000000;stroke-width:0"
       id="path3543-3-1"
       sodipodi:type="arc"
       sodipodi:cx="44.552425"
       sodipodi:cy="29.408236"
       sodipodi:rx="4.661448"
       sodipodi:ry="4.7114367"
       sodipodi:start="0"
       sodipodi:end="0.69665758"
       sodipodi:open="true"
       sodipodi:arc-type="arc"
       d="m 49.213873,29.408236 a 4.661448,4.7114367 0 0 1 -1.086158,3.023129"
       transform="rotate(30.867273)" />
    <path
       style="fill:#16adff;fill-opacity:1;stroke:#000000;stroke-width:0"
       id="path1755-6-7-7"
       sodipodi:type="arc"
       sodipodi:cx="35.779522"
       sodipodi:cy="34.004196"
       sodipodi:rx="1.9607714"
       sodipodi:ry="1.960771"
       sodipodi:start="0"
       sodipodi:end="6.2743672"
       sodipodi:open="true"
       sodipodi:arc-type="arc"
       d="m 37.740293,34.004196 a 1.9607714,1.960771 0 0 1 -1.956448,1.960766 1.9607714,1.960771 0 0 1 -1.965075,-1.952121 1.9607714,1.960771 0 0 1 1.947784,-1.969373 1.9607714,1.960771 0 0 1 1.973663,1.943438" />
    <path
       style="fill:#16adff;fill-opacity:1;stroke:#000000;stroke-width:0"
       d="m 34.09325,33.003649 3.416562,0.08029 -1.683046,-3.201994 z"
       id="path2817-2-3-2"
       sodipodi:nodetypes="cccc" />
    <path
       style="fill:#ffffff;fill-opacity:1;stroke:#000000;stroke-width:0"
       id="path3537-1-2-5"
       sodipodi:type="arc"
       sodipodi:cx="35.750046"
       sodipodi:cy="33.976395"
       sodipodi:rx="1.7045341"
       sodipodi:ry="1.7045342"
       sodipodi:start="0"
       sodipodi:end="1.7557802"
       sodipodi:arc-type="arc"
       d="m 37.45458,33.976395 a 1.7045341,1.7045342 0 0 1 -0.615719,1.311456 1.7045341,1.7045342 0 0 1 -1.402331,0.363997"
       sodipodi:open="true" />
    <path
       style="fill:#16adff;fill-opacity:1;stroke:#000000;stroke-width:0"
       id="path3543-3-3-8"
       sodipodi:type="arc"
       sodipodi:cx="44.977806"
       sodipodi:cy="9.6604576"
       sodipodi:rx="4.661448"
       sodipodi:ry="4.7114367"
       sodipodi:start="0"
       sodipodi:end="0.69665758"
       sodipodi:open="true"
       sodipodi:arc-type="arc"
       d="M 49.639254,9.6604576 A 4.661448,4.7114367 0 0 1 48.553095,12.683587"
       transform="rotate(30.867273)" />
    <path
       style="fill:#16adff;fill-opacity:1;stroke:#000000;stroke-width:0"
       id="path1755-5-5"
       sodipodi:type="arc"
       sodipodi:cx="34.681892"
       sodipodi:cy="57.978649"
       sodipodi:rx="1.9607714"
       sodipodi:ry="1.960771"
       sodipodi:start="0"
       sodipodi:end="6.2743672"
       sodipodi:open="true"
       sodipodi:arc-type="arc"
       d="m 36.642664,57.978649 a 1.9607714,1.960771 0 0 1 -1.956449,1.960766 1.9607714,1.960771 0 0 1 -1.965075,-1.952121 1.9607714,1.960771 0 0 1 1.947785,-1.969373 1.9607714,1.960771 0 0 1 1.973663,1.943438" />
    <path
       style="fill:#16adff;fill-opacity:1;stroke:#000000;stroke-width:0"
       d="m 32.995622,56.978112 3.416563,0.08029 -1.683045,-3.201994 z"
       id="path2817-5-8"
       sodipodi:nodetypes="cccc" />
    <path
       style="fill:#ffffff;fill-opacity:1;stroke:#000000;stroke-width:0"
       id="path3537-8-4"
       sodipodi:type="arc"
       sodipodi:cx="34.652412"
       sodipodi:cy="57.950859"
       sodipodi:rx="1.7045341"
       sodipodi:ry="1.7045342"
       sodipodi:start="0"
       sodipodi:end="1.7557802"
       sodipodi:arc-type="arc"
       d="m 36.356946,57.950859 a 1.7045341,1.7045342 0 0 1 -0.615718,1.311456 1.7045341,1.7045342 0 0 1 -1.402332,0.363998"
       sodipodi:open="true" />
    <path
       style="fill:#16adff;fill-opacity:1;stroke:#000000;stroke-width:0"
       id="path3543-30-0"
       sodipodi:type="arc"
       sodipodi:cx="56.335777"
       sodipodi:cy="30.802269"
       sodipodi:rx="4.661448"
       sodipodi:ry="4.7114367"
       sodipodi:start="0"
       sodipodi:end="0.69665758"
       sodipodi:open="true"
       sodipodi:arc-type="arc"
       d="m 60.997225,30.802269 a 4.661448,4.7114367 0 0 1 -1.086158,3.02313"
       transform="rotate(30.867273)" />
    <g
       inkscape:label="Lager 1"
       inkscape:groupmode="layer"
       id="layer1-3"
       transform="matrix(0.54912325,0,0,0.54912325,23.58565,17.235571)">
      <path
         id="path3414"
         style="fill:#ff9800;stroke:#000000;stroke-width:0"
         d="M 55.403141,35.586464 A 19.816681,19.816685 0 0 1 35.630146,55.4031 19.816681,19.816685 0 0 1 15.769972,35.673836 19.816681,19.816685 0 0 1 35.455402,15.770213 19.816681,19.816685 0 0 1 55.402371,35.411721" />
      <path
         id="path2217"
         style="fill:url(#radialGradient4262);stroke:#536756;stroke-width:0"
         d="m 52.122915,35.58646 a 16.536455,16.536453 0 0 1 -16.5,16.536413 A 16.536455,16.536453 0 0 1 19.050166,35.65937 16.536455,16.536453 0 0 1 35.477096,19.050369 16.536455,16.536453 0 0 1 52.122272,35.440642" />
      <path
         id="rect4340"
         style="fill:#ff9800;stroke:#000000;stroke-width:0"
         transform="rotate(90)"
         d="m 35.586462,-66.394608 c 0.634839,0 1.145918,0.421902 1.145918,0.945968 v 6.807688 c 0,0.524066 -0.511079,0.945968 -1.145918,0.945968 -0.634838,0 -1.145918,-0.421902 -1.145918,-0.945968 v -6.807688 c 0,-0.524066 0.51108,-0.945968 1.145918,-0.945968 z" />
      <path
         id="rect4340-5"
         style="fill:#ff9800;stroke:#000000;stroke-width:0"
         transform="rotate(119.9579)"
         d="m 13.061262,-79.410568 c 0.634839,0 1.145918,0.421901 1.145918,0.945968 v 6.807687 c 0,0.524066 -0.511079,0.945968 -1.145918,0.945968 -0.634838,0 -1.145918,-0.421902 -1.145918,-0.945968 V -78.4646 c 0,-0.524067 0.51108,-0.945968 1.145918,-0.945968 z" />
      <path
         id="rect4340-0"
         style="fill:#ff9800;stroke:#000000;stroke-width:0"
         transform="rotate(149.91579)"
         d="m -12.95409,-79.439247 c 0.634839,0 1.145918,0.421902 1.145918,0.945968 v 6.807687 c 0,0.524066 -0.511079,0.945968 -1.145918,0.945968 -0.634839,0 -1.145918,-0.421902 -1.145918,-0.945968 v -6.807687 c 0,-0.524066 0.511079,-0.945968 1.145918,-0.945968 z" />
      <path
         id="rect4340-02"
         style="fill:#ff9800;stroke:#000000;stroke-width:0"
         transform="rotate(179.87369)"
         d="m -35.507921,-66.472969 c 0.634838,0 1.145918,0.421902 1.145918,0.945968 v 6.807687 c 0,0.524066 -0.51108,0.945968 -1.145918,0.945968 -0.634839,0 -1.145918,-0.421902 -1.145918,-0.945968 v -6.807687 c 0,-0.524066 0.511079,-0.945968 1.145918,-0.945968 z" />
      <path
         id="rect4340-6"
         style="fill:#ff9800;stroke:#000000;stroke-width:0"
         transform="rotate(-150.1684)"
         d="m -48.573511,-43.976513 c 0.634839,0 1.145918,0.421902 1.145918,0.945968 v 6.807687 c 0,0.524067 -0.511079,0.945968 -1.145918,0.945968 -0.634839,0 -1.145918,-0.421901 -1.145918,-0.945968 v -6.807687 c 0,-0.524066 0.511079,-0.945968 1.145918,-0.945968 z" />
      <path
         id="rect4340-4"
         style="fill:#ff9800;stroke:#000000;stroke-width:0"
         transform="rotate(-120.21051)"
         d="m -48.659544,-17.961287 c 0.634839,0 1.145918,0.421902 1.145918,0.945968 v 6.807688 c 0,0.5240659 -0.511079,0.9459676 -1.145918,0.9459676 -0.634838,0 -1.145918,-0.4219017 -1.145918,-0.9459676 v -6.807688 c 0,-0.524066 0.51108,-0.945968 1.145918,-0.945968 z" />
      <path
         id="rect4340-66"
         style="fill:#ff9800;stroke:#000000;stroke-width:0"
         transform="rotate(-90.252617)"
         d="m -35.743017,4.6210728 c 0.634839,0 1.145918,0.4219016 1.145918,0.9459678 v 6.8076874 c 0,0.524066 -0.511079,0.945968 -1.145918,0.945968 -0.634839,0 -1.145918,-0.421902 -1.145918,-0.945968 V 5.5670406 c 0,-0.5240662 0.511079,-0.9459678 1.145918,-0.9459678 z" />
      <path
         id="rect4340-9"
         style="fill:#ff9800;stroke:#000000;stroke-width:0"
         transform="rotate(-60.294731)"
         d="m -13.275439,17.736223 c 0.634838,0 1.145918,0.421902 1.145918,0.945968 v 6.807688 c 0,0.524066 -0.51108,0.945967 -1.145918,0.945967 -0.634839,0 -1.145918,-0.421901 -1.145918,-0.945967 v -6.807688 c 0,-0.524066 0.511079,-0.945968 1.145918,-0.945968 z" />
      <path
         id="rect4340-3"
         style="fill:#ff9800;stroke:#000000;stroke-width:0"
         transform="rotate(-30.336808)"
         d="m 12.739563,17.879604 c 0.634839,0 1.145918,0.421902 1.145918,0.945968 v 6.807688 c 0,0.524066 -0.511079,0.945967 -1.145918,0.945967 -0.634838,0 -1.145918,-0.421901 -1.145918,-0.945967 v -6.807688 c 0,-0.524066 0.51108,-0.945968 1.145918,-0.945968 z" />
      <path
         id="rect4340-31-6"
         style="fill:#ff9800;stroke:#000000;stroke-width:0"
         transform="rotate(-0.37894063)"
         d="m 35.350321,5.0129056 c 0.634839,0 1.145918,0.4219016 1.145918,0.9459678 v 6.8076876 c 0,0.524066 -0.511079,0.945968 -1.145918,0.945968 -0.634839,0 -1.145918,-0.421902 -1.145918,-0.945968 V 5.9588734 c 0,-0.5240662 0.511079,-0.9459678 1.145918,-0.9459678 z" />
      <path
         id="rect4340-7"
         style="fill:#ff9800;stroke:#000000;stroke-width:0"
         transform="rotate(29.578957)"
         d="m 48.514979,-17.425713 c 0.634838,0 1.145918,0.421902 1.145918,0.945968 v 6.8076877 c 0,0.5240662 -0.51108,0.9459678 -1.145918,0.9459678 -0.634839,0 -1.145918,-0.4219016 -1.145918,-0.9459678 v -6.8076877 c 0,-0.524066 0.511079,-0.945968 1.145918,-0.945968 z" />
      <path
         id="rect4340-67"
         style="fill:#ff9800;stroke:#000000;stroke-width:0"
         transform="rotate(59.536874)"
         d="m 48.715708,-43.440331 c 0.634838,0 1.145918,0.421902 1.145918,0.945968 v 6.807688 c 0,0.524066 -0.51108,0.945968 -1.145918,0.945968 -0.634839,0 -1.145918,-0.421902 -1.145918,-0.945968 v -6.807688 c 0,-0.524066 0.511079,-0.945968 1.145918,-0.945968 z" />
    </g>
    <circle
       style="fill:#f6f9f9;fill-opacity:1;stroke:#040000;stroke-width:0"
       id="path234"
       cy="13.302316"
       cx="26.402302"
       r="13.229166" />
    <circle
       style="fill:#f6f9f9;fill-opacity:1;stroke:#040000;stroke-width:0"
       id="path234-91"
       cy="27.972376"
       cx="33.832439"
       r="13.229166" />
    <circle
       style="fill:#f6f9f9;fill-opacity:1;stroke:#040000;stroke-width:0"
       id="path234-91-9"
       cy="27.966261"
       cx="13.757198"
       r="13.229166" />
    <rect
       style="fill:#f6f9f9;fill-opacity:1;stroke:#040000;stroke-width:0"
       id="rect1098-8"
       width="21.530279"
       height="19.563942"
       x="12.612442"
       y="21.634979" />
  </g>
</svg>
