<?xml version="1.0" encoding="UTF-8" standalone="no"?>
<!-- Created with Inkscape (http://www.inkscape.org/) -->

<svg
   width="256"
   height="256"
   viewBox="0 0 67.73336 67.733306"
   version="1.1"
   id="svg5"
   inkscape:version="1.2.2 (732a01da63, 2022-12-09)"
   sodipodi:docname="Cloud - rainy - sunny.svg"
   inkscape:export-filename="./png/Cloud - rainy - sunny.png"
   inkscape:export-xdpi="96"
   inkscape:export-ydpi="96"
   xmlns:inkscape="http://www.inkscape.org/namespaces/inkscape"
   xmlns:sodipodi="http://sodipodi.sourceforge.net/DTD/sodipodi-0.dtd"
   xmlns:xlink="http://www.w3.org/1999/xlink"
   xmlns="http://www.w3.org/2000/svg"
   xmlns:svg="http://www.w3.org/2000/svg">
  <sodipodi:namedview
     id="namedview7"
     pagecolor="#ffffff"
     bordercolor="#000000"
     borderopacity="0.25"
     inkscape:showpageshadow="2"
     inkscape:pageopacity="0.0"
     inkscape:pagecheckerboard="0"
     inkscape:deskcolor="#d1d1d1"
     inkscape:document-units="mm"
     showgrid="false"
     inkscape:zoom="2.8284272"
     inkscape:cx="117.20295"
     inkscape:cy="102.3537"
     inkscape:window-width="1718"
     inkscape:window-height="1360"
     inkscape:window-x="1913"
     inkscape:window-y="0"
     inkscape:window-maximized="0"
     inkscape:current-layer="layer1" />
  <defs
     id="defs2">
    <radialGradient
       inkscape:collect="always"
       xlink:href="#linearGradient4260"
       id="radialGradient4262"
       cx="35.586456"
       cy="35.58646"
       fx="35.586456"
       fy="35.58646"
       r="17.835016"
       gradientUnits="userSpaceOnUse"
       gradientTransform="matrix(0.92719051,0,0,0.92719036,2.5910305,2.5910363)" />
    <linearGradient
       inkscape:collect="always"
       id="linearGradient4260">
      <stop
         style="stop-color:#ffff00;stop-opacity:1;"
         offset="0"
         id="stop4256" />
      <stop
         style="stop-color:#ffdd05;stop-opacity:1;"
         offset="1"
         id="stop4258" />
    </linearGradient>
  </defs>
  <g
     inkscape:label="Lager 1"
     inkscape:groupmode="layer"
     id="layer1">
    <g
       inkscape:groupmode="layer"
       id="layer4"
       inkscape:label="Mörkt moln"
       style="display:inline">
      <circle
         style="fill:#dae8e9;fill-opacity:1;stroke:#040000;stroke-width:0"
         id="path234-9"
         cy="26.563564"
         cx="54.792645"
         r="12.561003"
         transform="translate(-0.0741731,1.6084201)" />
      <circle
         style="fill:#dae8e9;fill-opacity:1;stroke:#040000;stroke-width:0"
         id="path234-9-1"
         cy="17.884159"
         cx="46.26693"
         r="12.561003"
         transform="translate(-0.0741731,1.6084201)" />
      <rect
         style="fill:#dae8e9;fill-opacity:1;stroke:#040000;stroke-width:0"
         id="rect1098"
         width="22.643919"
         height="25.11923"
         x="32.148724"
         y="14.002563"
         transform="translate(-0.0741731,1.6084201)" />
    </g>
    <g
       inkscape:groupmode="layer"
       id="layer5"
       inkscape:label="Vattendroppar">
      <g
         inkscape:groupmode="layer"
         id="layer8"
         inkscape:label="Droppe3"
         style="display:inline"
         transform="translate(-6.9964537,4.4147501)">
        <path
           style="fill:#16adff;fill-opacity:1;stroke:#000000;stroke-width:0"
           id="path1755"
           sodipodi:type="arc"
           sodipodi:cx="23.594765"
           sodipodi:cy="44.463779"
           sodipodi:rx="6.524116"
           sodipodi:ry="6.5241156"
           sodipodi:start="0"
           sodipodi:end="6.2743672"
           sodipodi:open="true"
           sodipodi:arc-type="arc"
           d="m 30.118881,44.463779 a 6.524116,6.5241156 0 0 1 -6.509734,6.5241 6.524116,6.5241156 0 0 1 -6.538435,-6.495334 6.524116,6.5241156 0 0 1 6.480905,-6.552738 6.524116,6.5241156 0 0 1 6.56701,6.466443" />
        <path
           style="fill:#16adff;fill-opacity:1;stroke:#000000;stroke-width:0"
           d="m 17.983966,41.134652 11.367997,0.26712 -5.60003,-10.654061 z"
           id="path2817"
           sodipodi:nodetypes="cccc" />
        <path
           style="fill:#ffffff;fill-opacity:1;stroke:#000000;stroke-width:0"
           id="path3537"
           sodipodi:type="arc"
           sodipodi:cx="23.496668"
           sodipodi:cy="44.371292"
           sodipodi:rx="5.6715322"
           sodipodi:ry="5.6715331"
           sodipodi:start="0"
           sodipodi:end="1.7557802"
           sodipodi:arc-type="arc"
           d="m 29.1682,44.371292 a 5.6715322,5.6715331 0 0 1 -2.048694,4.363637 5.6715322,5.6715331 0 0 1 -4.666007,1.211135"
           sodipodi:open="true" />
        <path
           style="fill:#16adff;fill-opacity:1;stroke:#000000;stroke-width:0"
           id="path3543"
           sodipodi:type="arc"
           sodipodi:cx="32.484978"
           sodipodi:cy="22.165607"
           sodipodi:rx="15.510138"
           sodipodi:ry="15.676464"
           sodipodi:start="0"
           sodipodi:end="0.69665758"
           sodipodi:open="true"
           sodipodi:arc-type="arc"
           d="M 47.995115,22.165607 A 15.510138,15.676464 0 0 1 44.381116,32.224531"
           transform="rotate(30.867273)" />
      </g>
      <g
         inkscape:groupmode="layer"
         id="layer7"
         inkscape:label="Dropp2"
         transform="translate(2.4515239,10.68222)">
        <path
           style="fill:#16adff;fill-opacity:1;stroke:#000000;stroke-width:0"
           id="path1755-3"
           sodipodi:type="arc"
           sodipodi:cx="49.763939"
           sodipodi:cy="40.593426"
           sodipodi:rx="6.524116"
           sodipodi:ry="6.5241156"
           sodipodi:start="0"
           sodipodi:end="6.2743672"
           sodipodi:open="true"
           sodipodi:arc-type="arc"
           d="m 56.288055,40.593426 a 6.524116,6.5241156 0 0 1 -6.509734,6.524099 6.524116,6.5241156 0 0 1 -6.538435,-6.495334 6.524116,6.5241156 0 0 1 6.480905,-6.552738 6.524116,6.5241156 0 0 1 6.56701,6.466443" />
        <path
           style="fill:#16adff;fill-opacity:1;stroke:#000000;stroke-width:0"
           d="m 44.15314,37.264306 11.367994,0.26712 -5.600029,-10.654062 z"
           id="path2817-9"
           sodipodi:nodetypes="cccc" />
        <path
           style="fill:#ffffff;fill-opacity:1;stroke:#000000;stroke-width:0"
           id="path3537-1"
           sodipodi:type="arc"
           sodipodi:cx="49.665844"
           sodipodi:cy="40.500942"
           sodipodi:rx="5.6715322"
           sodipodi:ry="5.6715331"
           sodipodi:start="0"
           sodipodi:end="1.7557802"
           sodipodi:arc-type="arc"
           d="m 55.337376,40.500942 a 5.6715322,5.6715331 0 0 1 -2.048694,4.363637 5.6715322,5.6715331 0 0 1 -4.666007,1.211136"
           sodipodi:open="true" />
        <path
           style="fill:#16adff;fill-opacity:1;stroke:#000000;stroke-width:0"
           id="path3543-6"
           sodipodi:type="arc"
           sodipodi:cx="52.961807"
           sodipodi:cy="5.417347"
           sodipodi:rx="15.510138"
           sodipodi:ry="15.676464"
           sodipodi:start="0"
           sodipodi:end="0.69665758"
           sodipodi:open="true"
           sodipodi:arc-type="arc"
           d="M 68.471945,5.417347 A 15.510138,15.676464 0 0 1 64.857946,15.47627"
           transform="rotate(30.867273)" />
      </g>
      <g
         inkscape:groupmode="layer"
         id="layer6"
         inkscape:label="Droppe1"
         transform="translate(-2.4127814,1.5148758)"
         style="display:inline">
        <path
           style="fill:#16adff;fill-opacity:1;stroke:#000000;stroke-width:0"
           id="path1755-1"
           sodipodi:type="arc"
           sodipodi:cx="37.439793"
           sodipodi:cy="57.919228"
           sodipodi:rx="6.524116"
           sodipodi:ry="6.5241156"
           sodipodi:start="0"
           sodipodi:end="6.2743672"
           sodipodi:open="true"
           sodipodi:arc-type="arc"
           d="m 43.963909,57.919228 a 6.524116,6.5241156 0 0 1 -6.509734,6.524099 6.524116,6.5241156 0 0 1 -6.538435,-6.495334 6.524116,6.5241156 0 0 1 6.480905,-6.552738 6.524116,6.5241156 0 0 1 6.56701,6.466443" />
        <path
           style="fill:#16adff;fill-opacity:1;stroke:#000000;stroke-width:0"
           d="M 31.828995,54.590102 43.196988,54.857223 37.596959,44.203161 Z"
           id="path2817-0"
           sodipodi:nodetypes="cccc" />
        <path
           style="fill:#ffffff;fill-opacity:1;stroke:#000000;stroke-width:0"
           id="path3537-2"
           sodipodi:type="arc"
           sodipodi:cx="37.341694"
           sodipodi:cy="57.82674"
           sodipodi:rx="5.6715322"
           sodipodi:ry="5.6715331"
           sodipodi:start="0"
           sodipodi:end="1.7557802"
           sodipodi:arc-type="arc"
           d="m 43.013226,57.82674 a 5.6715322,5.6715331 0 0 1 -2.048694,4.363637 5.6715322,5.6715331 0 0 1 -4.666007,1.211136"
           sodipodi:open="true" />
        <path
           style="fill:#16adff;fill-opacity:1;stroke:#000000;stroke-width:0"
           id="path3543-7"
           sodipodi:type="arc"
           sodipodi:cx="51.272289"
           sodipodi:cy="26.611998"
           sodipodi:rx="15.510138"
           sodipodi:ry="15.676464"
           sodipodi:start="0"
           sodipodi:end="0.69665758"
           sodipodi:open="true"
           sodipodi:arc-type="arc"
           d="M 66.782427,26.611998 A 15.510138,15.676464 0 0 1 63.168428,36.670921"
           transform="rotate(30.867273)" />
      </g>
    </g>
    <g
       inkscape:label="Sol"
       inkscape:groupmode="layer"
       id="layer1-3"
       transform="matrix(0.54912326,0,0,0.54912326,23.58565,17.235571)"
       style="display:inline">
      <path
         id="path3414"
         style="fill:#ff9800;stroke:#000000;stroke-width:0"
         d="M 55.403141,35.586464 A 19.816681,19.816685 0 0 1 35.630146,55.4031 19.816681,19.816685 0 0 1 15.769972,35.673836 19.816681,19.816685 0 0 1 35.455402,15.770213 19.816681,19.816685 0 0 1 55.402371,35.411721" />
      <path
         id="path2217"
         style="fill:url(#radialGradient4262);stroke:#536756;stroke-width:0"
         d="m 52.122915,35.58646 a 16.536455,16.536453 0 0 1 -16.5,16.536413 A 16.536455,16.536453 0 0 1 19.050166,35.65937 16.536455,16.536453 0 0 1 35.477096,19.050369 16.536455,16.536453 0 0 1 52.122272,35.440642" />
      <path
         id="rect4340"
         style="fill:#ff9800;stroke:#000000;stroke-width:0"
         transform="rotate(90)"
         d="m 35.586462,-66.394608 c 0.634839,0 1.145918,0.421902 1.145918,0.945968 v 6.807688 c 0,0.524066 -0.511079,0.945968 -1.145918,0.945968 -0.634838,0 -1.145918,-0.421902 -1.145918,-0.945968 v -6.807688 c 0,-0.524066 0.51108,-0.945968 1.145918,-0.945968 z" />
      <path
         id="rect4340-5"
         style="fill:#ff9800;stroke:#000000;stroke-width:0"
         transform="rotate(119.9579)"
         d="m 13.061262,-79.410568 c 0.634839,0 1.145918,0.421901 1.145918,0.945968 v 6.807687 c 0,0.524066 -0.511079,0.945968 -1.145918,0.945968 -0.634838,0 -1.145918,-0.421902 -1.145918,-0.945968 V -78.4646 c 0,-0.524067 0.51108,-0.945968 1.145918,-0.945968 z" />
      <path
         id="rect4340-0"
         style="fill:#ff9800;stroke:#000000;stroke-width:0"
         transform="rotate(149.91579)"
         d="m -12.95409,-79.439247 c 0.634839,0 1.145918,0.421902 1.145918,0.945968 v 6.807687 c 0,0.524066 -0.511079,0.945968 -1.145918,0.945968 -0.634839,0 -1.145918,-0.421902 -1.145918,-0.945968 v -6.807687 c 0,-0.524066 0.511079,-0.945968 1.145918,-0.945968 z" />
      <path
         id="rect4340-02"
         style="fill:#ff9800;stroke:#000000;stroke-width:0"
         transform="rotate(179.87369)"
         d="m -35.507921,-66.472969 c 0.634838,0 1.145918,0.421902 1.145918,0.945968 v 6.807687 c 0,0.524066 -0.51108,0.945968 -1.145918,0.945968 -0.634839,0 -1.145918,-0.421902 -1.145918,-0.945968 v -6.807687 c 0,-0.524066 0.511079,-0.945968 1.145918,-0.945968 z" />
      <path
         id="rect4340-6"
         style="fill:#ff9800;stroke:#000000;stroke-width:0"
         transform="rotate(-150.1684)"
         d="m -48.573511,-43.976513 c 0.634839,0 1.145918,0.421902 1.145918,0.945968 v 6.807687 c 0,0.524067 -0.511079,0.945968 -1.145918,0.945968 -0.634839,0 -1.145918,-0.421901 -1.145918,-0.945968 v -6.807687 c 0,-0.524066 0.511079,-0.945968 1.145918,-0.945968 z" />
      <path
         id="rect4340-4"
         style="fill:#ff9800;stroke:#000000;stroke-width:0"
         transform="rotate(-120.21051)"
         d="m -48.659544,-17.961287 c 0.634839,0 1.145918,0.421902 1.145918,0.945968 v 6.807688 c 0,0.5240659 -0.511079,0.9459676 -1.145918,0.9459676 -0.634838,0 -1.145918,-0.4219017 -1.145918,-0.9459676 v -6.807688 c 0,-0.524066 0.51108,-0.945968 1.145918,-0.945968 z" />
      <path
         id="rect4340-66"
         style="fill:#ff9800;stroke:#000000;stroke-width:0"
         transform="rotate(-90.252617)"
         d="m -35.743017,4.6210728 c 0.634839,0 1.145918,0.4219016 1.145918,0.9459678 v 6.8076874 c 0,0.524066 -0.511079,0.945968 -1.145918,0.945968 -0.634839,0 -1.145918,-0.421902 -1.145918,-0.945968 V 5.5670406 c 0,-0.5240662 0.511079,-0.9459678 1.145918,-0.9459678 z" />
      <path
         id="rect4340-9"
         style="fill:#ff9800;stroke:#000000;stroke-width:0"
         transform="rotate(-60.294731)"
         d="m -13.275439,17.736223 c 0.634838,0 1.145918,0.421902 1.145918,0.945968 v 6.807688 c 0,0.524066 -0.51108,0.945967 -1.145918,0.945967 -0.634839,0 -1.145918,-0.421901 -1.145918,-0.945967 v -6.807688 c 0,-0.524066 0.511079,-0.945968 1.145918,-0.945968 z" />
      <path
         id="rect4340-3"
         style="fill:#ff9800;stroke:#000000;stroke-width:0"
         transform="rotate(-30.336808)"
         d="m 12.739563,17.879604 c 0.634839,0 1.145918,0.421902 1.145918,0.945968 v 6.807688 c 0,0.524066 -0.511079,0.945967 -1.145918,0.945967 -0.634838,0 -1.145918,-0.421901 -1.145918,-0.945967 v -6.807688 c 0,-0.524066 0.51108,-0.945968 1.145918,-0.945968 z" />
      <path
         id="rect4340-31-6"
         style="fill:#ff9800;stroke:#000000;stroke-width:0"
         transform="rotate(-0.37894063)"
         d="m 35.350321,5.0129056 c 0.634839,0 1.145918,0.4219016 1.145918,0.9459678 v 6.8076876 c 0,0.524066 -0.511079,0.945968 -1.145918,0.945968 -0.634839,0 -1.145918,-0.421902 -1.145918,-0.945968 V 5.9588734 c 0,-0.5240662 0.511079,-0.9459678 1.145918,-0.9459678 z" />
      <path
         id="rect4340-7"
         style="fill:#ff9800;stroke:#000000;stroke-width:0"
         transform="rotate(29.578957)"
         d="m 48.514979,-17.425713 c 0.634838,0 1.145918,0.421902 1.145918,0.945968 v 6.8076877 c 0,0.5240662 -0.51108,0.9459678 -1.145918,0.9459678 -0.634839,0 -1.145918,-0.4219016 -1.145918,-0.9459678 v -6.8076877 c 0,-0.524066 0.511079,-0.945968 1.145918,-0.945968 z" />
      <path
         id="rect4340-67"
         style="fill:#ff9800;stroke:#000000;stroke-width:0"
         transform="rotate(59.536874)"
         d="m 48.715708,-43.440331 c 0.634838,0 1.145918,0.421902 1.145918,0.945968 v 6.807688 c 0,0.524066 -0.51108,0.945968 -1.145918,0.945968 -0.634839,0 -1.145918,-0.421902 -1.145918,-0.945968 v -6.807688 c 0,-0.524066 0.511079,-0.945968 1.145918,-0.945968 z" />
    </g>
    <g
       inkscape:groupmode="layer"
       id="layer3"
       inkscape:label="Vitt moln"
       style="display:inline">
      <circle
         style="fill:#f6f9f9;fill-opacity:1;stroke:#040000;stroke-width:0"
         id="path234-91"
         cy="26.563274"
         cx="32.150341"
         r="12.561003"
         transform="translate(-0.0741731,1.6084201)" />
      <circle
         style="fill:#f6f9f9;fill-opacity:1;stroke:#040000;stroke-width:0"
         id="path234-91-9"
         cy="26.557468"
         cx="13.089035"
         r="12.561003"
         transform="translate(-0.0741731,1.6084201)" />
      <rect
         style="fill:#f6f9f9;fill-opacity:1;stroke:#040000;stroke-width:0"
         id="rect1098-8"
         width="20.442854"
         height="18.57583"
         x="12.002097"
         y="20.545959"
         transform="translate(-0.0741731,1.6084201)" />
      <circle
         style="fill:#f6f9f9;fill-opacity:1;stroke:#040000;stroke-width:0"
         id="path234"
         cy="12.634152"
         cx="25.095474"
         r="12.561003"
         transform="translate(-0.0741731,1.6084201)" />
    </g>
  </g>
</svg>
