<?xml version="1.0" encoding="UTF-8" standalone="no"?>
<!-- Created with Inkscape (http://www.inkscape.org/) -->

<svg
   width="256"
   height="256"
   viewBox="0 0 67.73336 67.733306"
   version="1.1"
   id="svg5"
   inkscape:version="1.2.1 (9c6d41e410, 2022-07-14)"
   sodipodi:docname="Cloud - rainy - moon.svg"
   inkscape:export-filename="./png/Cloud - rainy - moon.png"
   inkscape:export-xdpi="96"
   inkscape:export-ydpi="96"
   xmlns:inkscape="http://www.inkscape.org/namespaces/inkscape"
   xmlns:sodipodi="http://sodipodi.sourceforge.net/DTD/sodipodi-0.dtd"
   xmlns:xlink="http://www.w3.org/1999/xlink"
   xmlns="http://www.w3.org/2000/svg"
   xmlns:svg="http://www.w3.org/2000/svg">
  <sodipodi:namedview
     id="namedview7"
     pagecolor="#ffffff"
     bordercolor="#000000"
     borderopacity="0.25"
     inkscape:showpageshadow="2"
     inkscape:pageopacity="0.0"
     inkscape:pagecheckerboard="0"
     inkscape:deskcolor="#d1d1d1"
     inkscape:document-units="mm"
     showgrid="false"
     inkscape:zoom="2.0000001"
     inkscape:cx="88.249996"
     inkscape:cy="185.49999"
     inkscape:window-width="1718"
     inkscape:window-height="1080"
     inkscape:window-x="1647"
     inkscape:window-y="433"
     inkscape:window-maximized="0"
     inkscape:current-layer="layer7" />
  <defs
     id="defs2">
    <radialGradient
       inkscape:collect="always"
       xlink:href="#linearGradient4260"
       id="radialGradient13839"
       cx="25.727983"
       cy="33.866947"
       fx="25.727983"
       fy="33.866947"
       r="9.7208529"
       gradientTransform="matrix(1,0,0,1.8371984,0,-28.353353)"
       gradientUnits="userSpaceOnUse" />
    <linearGradient
       inkscape:collect="always"
       id="linearGradient4260">
      <stop
         style="stop-color:#ffff00;stop-opacity:1;"
         offset="0"
         id="stop4256" />
      <stop
         style="stop-color:#ffdd05;stop-opacity:1;"
         offset="1"
         id="stop4258" />
    </linearGradient>
  </defs>
  <g
     inkscape:label="Lager 1"
     inkscape:groupmode="layer"
     id="layer1">
    <g
       id="g1435"
       inkscape:label="Mörkt moln"
       transform="matrix(0.92966852,0,0,0.92966852,2.6783587,-5.8201914)">
      <circle
         style="fill:#dae8e9;fill-opacity:1;stroke:#040000;stroke-width:0"
         id="path234-9"
         cy="47.642525"
         cx="54.713104"
         r="12.557772" />
      <circle
         style="fill:#dae8e9;fill-opacity:1;stroke:#040000;stroke-width:0"
         id="path234-9-1"
         cy="38.965351"
         cx="46.189587"
         r="12.557772" />
      <rect
         style="fill:#dae8e9;fill-opacity:1;stroke:#040000;stroke-width:0"
         id="rect1098"
         width="22.638094"
         height="25.112768"
         x="32.075012"
         y="35.084751" />
    </g>
    <g
       inkscape:groupmode="layer"
       id="layer5"
       inkscape:label="Vattendroppar">
      <g
         inkscape:groupmode="layer"
         id="layer8"
         inkscape:label="Droppe3"
         style="display:inline"
         transform="translate(-6.9964537,10.764751)">
        <path
           style="fill:#16adff;fill-opacity:1;stroke:#000000;stroke-width:0"
           id="path1755"
           sodipodi:type="arc"
           sodipodi:cx="23.594765"
           sodipodi:cy="46.051281"
           sodipodi:rx="6.524116"
           sodipodi:ry="6.5241156"
           sodipodi:start="0"
           sodipodi:end="6.2743672"
           sodipodi:open="true"
           sodipodi:arc-type="arc"
           d="m 30.118881,46.051281 a 6.524116,6.5241156 0 0 1 -6.509734,6.5241 6.524116,6.5241156 0 0 1 -6.538435,-6.495335 6.524116,6.5241156 0 0 1 6.480905,-6.552738 6.524116,6.5241156 0 0 1 6.56701,6.466443" />
        <path
           style="fill:#16adff;fill-opacity:1;stroke:#000000;stroke-width:0"
           d="m 17.983966,42.722153 11.367997,0.26712 -5.60003,-10.654061 z"
           id="path2817"
           sodipodi:nodetypes="cccc" />
        <path
           style="fill:#ffffff;fill-opacity:1;stroke:#000000;stroke-width:0"
           id="path3537"
           sodipodi:type="arc"
           sodipodi:cx="23.496668"
           sodipodi:cy="45.958794"
           sodipodi:rx="5.6715322"
           sodipodi:ry="5.6715331"
           sodipodi:start="0"
           sodipodi:end="1.7557802"
           sodipodi:arc-type="arc"
           d="m 29.1682,45.958794 a 5.6715322,5.6715331 0 0 1 -2.048694,4.363637 5.6715322,5.6715331 0 0 1 -4.666007,1.211135"
           sodipodi:open="true" />
        <path
           style="fill:#16adff;fill-opacity:1;stroke:#000000;stroke-width:0"
           id="path3543"
           sodipodi:type="arc"
           sodipodi:cx="33.299442"
           sodipodi:cy="23.52825"
           sodipodi:rx="15.510138"
           sodipodi:ry="15.676464"
           sodipodi:start="0"
           sodipodi:end="0.69665758"
           sodipodi:open="true"
           sodipodi:arc-type="arc"
           d="M 48.80958,23.52825 A 15.510138,15.676464 0 0 1 45.195581,33.587173"
           transform="rotate(30.867273)" />
      </g>
      <g
         inkscape:groupmode="layer"
         id="layer7"
         inkscape:label="Dropp2"
         transform="translate(2.4515239,14.915556)">
        <path
           style="fill:#16adff;fill-opacity:1;stroke:#000000;stroke-width:0"
           id="path1755-3"
           sodipodi:type="arc"
           sodipodi:cx="49.763939"
           sodipodi:cy="42.180927"
           sodipodi:rx="6.524116"
           sodipodi:ry="6.5241156"
           sodipodi:start="0"
           sodipodi:end="6.2743672"
           sodipodi:open="true"
           sodipodi:arc-type="arc"
           d="m 56.288055,42.180927 a 6.524116,6.5241156 0 0 1 -6.509734,6.5241 6.524116,6.5241156 0 0 1 -6.538435,-6.495335 6.524116,6.5241156 0 0 1 6.480905,-6.552738 6.524116,6.5241156 0 0 1 6.56701,6.466444" />
        <path
           style="fill:#16adff;fill-opacity:1;stroke:#000000;stroke-width:0"
           d="m 44.15314,38.851807 11.367994,0.26712 -5.600029,-10.654062 z"
           id="path2817-9"
           sodipodi:nodetypes="cccc" />
        <path
           style="fill:#ffffff;fill-opacity:1;stroke:#000000;stroke-width:0"
           id="path3537-1"
           sodipodi:type="arc"
           sodipodi:cx="49.665844"
           sodipodi:cy="42.088444"
           sodipodi:rx="5.6715322"
           sodipodi:ry="5.6715331"
           sodipodi:start="0"
           sodipodi:end="1.7557802"
           sodipodi:arc-type="arc"
           d="m 55.337376,42.088444 a 5.6715322,5.6715331 0 0 1 -2.048694,4.363637 5.6715322,5.6715331 0 0 1 -4.666007,1.211135"
           sodipodi:open="true" />
        <path
           style="fill:#16adff;fill-opacity:1;stroke:#000000;stroke-width:0"
           id="path3543-6"
           sodipodi:type="arc"
           sodipodi:cx="53.776272"
           sodipodi:cy="6.7799907"
           sodipodi:rx="15.510138"
           sodipodi:ry="15.676464"
           sodipodi:start="0"
           sodipodi:end="0.69665758"
           sodipodi:open="true"
           sodipodi:arc-type="arc"
           d="M 69.286409,6.7799907 A 15.510138,15.676464 0 0 1 65.67241,16.838914"
           transform="rotate(30.867273)" />
      </g>
      <g
         inkscape:groupmode="layer"
         id="layer6"
         inkscape:label="Droppe1"
         transform="translate(-2.9419481,0.98570913)"
         style="display:inline">
        <path
           style="fill:#16adff;fill-opacity:1;stroke:#000000;stroke-width:0"
           id="path1755-1"
           sodipodi:type="arc"
           sodipodi:cx="37.439793"
           sodipodi:cy="59.506729"
           sodipodi:rx="6.524116"
           sodipodi:ry="6.5241156"
           sodipodi:start="0"
           sodipodi:end="6.2743672"
           sodipodi:open="true"
           sodipodi:arc-type="arc"
           d="m 43.963909,59.506729 a 6.524116,6.5241156 0 0 1 -6.509734,6.5241 6.524116,6.5241156 0 0 1 -6.538435,-6.495335 6.524116,6.5241156 0 0 1 6.480905,-6.552738 6.524116,6.5241156 0 0 1 6.56701,6.466444" />
        <path
           style="fill:#16adff;fill-opacity:1;stroke:#000000;stroke-width:0"
           d="M 31.828995,56.177603 43.196988,56.444724 37.596959,45.790662 Z"
           id="path2817-0"
           sodipodi:nodetypes="cccc" />
        <path
           style="fill:#ffffff;fill-opacity:1;stroke:#000000;stroke-width:0"
           id="path3537-2"
           sodipodi:type="arc"
           sodipodi:cx="37.341694"
           sodipodi:cy="59.414242"
           sodipodi:rx="5.6715322"
           sodipodi:ry="5.6715331"
           sodipodi:start="0"
           sodipodi:end="1.7557802"
           sodipodi:arc-type="arc"
           d="m 43.013226,59.414242 a 5.6715322,5.6715331 0 0 1 -2.048694,4.363637 5.6715322,5.6715331 0 0 1 -4.666007,1.211135"
           sodipodi:open="true" />
        <path
           style="fill:#16adff;fill-opacity:1;stroke:#000000;stroke-width:0"
           id="path3543-7"
           sodipodi:type="arc"
           sodipodi:cx="52.086754"
           sodipodi:cy="27.97464"
           sodipodi:rx="15.510138"
           sodipodi:ry="15.676464"
           sodipodi:start="0"
           sodipodi:end="0.69665758"
           sodipodi:open="true"
           sodipodi:arc-type="arc"
           d="M 67.596891,27.97464 A 15.510138,15.676464 0 0 1 63.982892,38.033563"
           transform="rotate(30.867273)" />
      </g>
    </g>
    <path
       id="path2217-0"
       style="fill:url(#radialGradient13839);fill-opacity:1;stroke:#ff9800;stroke-width:1.94862;stroke-linecap:butt;stroke-linejoin:round;stroke-dasharray:none;stroke-opacity:1;paint-order:markers fill stroke"
       class="UnoptimicedTransforms"
       d="m 33.757113,17.330725 a 16.536455,16.536453 0 0 0 -16.426905,16.608805 16.536455,16.536453 0 0 0 16.573149,16.463595 16.536455,16.536453 0 0 0 0.222725,-0.0031 24.645325,24.64533 0 0 1 -6.383589,-16.424837 24.645325,24.64533 0 0 1 6.36912,-16.63361 16.536455,16.536453 0 0 0 -0.3545,-0.01085 z"
       transform="matrix(1.2352597,0,0,1.2352597,13.621828,-19.02139)"
       inkscape:label="Måne" />
    <g
       id="g1430"
       inkscape:label="Vitt moln"
       transform="matrix(0.92966852,0,0,0.92966852,2.6783587,-5.8201914)">
      <rect
         style="fill:#f6f9f9;fill-opacity:1;stroke:#040000;stroke-width:0"
         id="rect1098-8"
         width="20.437595"
         height="18.571051"
         x="11.933571"
         y="41.626465" />
      <circle
         style="fill:#f6f9f9;fill-opacity:1;stroke:#040000;stroke-width:0"
         id="path234"
         cy="33.716694"
         cx="25.023579"
         r="12.557772" />
      <circle
         style="fill:#f6f9f9;fill-opacity:1;stroke:#040000;stroke-width:0"
         id="path234-91-9"
         cy="47.636429"
         cx="13.020228"
         r="12.557772" />
      <circle
         style="fill:#f6f9f9;fill-opacity:1;stroke:#040000;stroke-width:0"
         id="path234-91"
         cy="47.642235"
         cx="32.076626"
         r="12.557772" />
    </g>
  </g>
</svg>
