<?xml version="1.0" encoding="UTF-8" standalone="no"?>
<!-- Created with Inkscape (http://www.inkscape.org/) -->

<svg
   width="269"
   height="269"
   viewBox="0 0 71.172945 71.172916"
   version="1.1"
   id="svg5"
   inkscape:version="1.2.2 (732a01da63, 2022-12-09)"
   sodipodi:docname="Moon.svg"
   inkscape:export-filename="Moon.png"
   inkscape:export-xdpi="96"
   inkscape:export-ydpi="96"
   xmlns:inkscape="http://www.inkscape.org/namespaces/inkscape"
   xmlns:sodipodi="http://sodipodi.sourceforge.net/DTD/sodipodi-0.dtd"
   xmlns:xlink="http://www.w3.org/1999/xlink"
   xmlns="http://www.w3.org/2000/svg"
   xmlns:svg="http://www.w3.org/2000/svg">
  <sodipodi:namedview
     id="namedview7"
     pagecolor="#ffffff"
     bordercolor="#000000"
     borderopacity="0.25"
     inkscape:showpageshadow="2"
     inkscape:pageopacity="0.0"
     inkscape:pagecheckerboard="0"
     inkscape:deskcolor="#d1d1d1"
     inkscape:document-units="mm"
     showgrid="false"
     inkscape:zoom="2"
     inkscape:cx="80.75"
     inkscape:cy="90.25"
     inkscape:window-width="1718"
     inkscape:window-height="1360"
     inkscape:window-x="1913"
     inkscape:window-y="0"
     inkscape:window-maximized="0"
     inkscape:current-layer="layer1" />
  <defs
     id="defs2">
    <inkscape:path-effect
       effect="spiro"
       id="path-effect9958"
       is_visible="true"
       lpeversion="1" />
    <inkscape:path-effect
       effect="spiro"
       id="path-effect9954"
       is_visible="true"
       lpeversion="1" />
    <inkscape:path-effect
       effect="spiro"
       id="path-effect9896"
       is_visible="true"
       lpeversion="1" />
    <inkscape:path-effect
       effect="spiro"
       id="path-effect8432"
       is_visible="true"
       lpeversion="1" />
    <linearGradient
       inkscape:collect="always"
       id="linearGradient4260">
      <stop
         style="stop-color:#6a6a75;stop-opacity:1;"
         offset="0"
         id="stop4256" />
      <stop
         style="stop-color:#59596c;stop-opacity:1;"
         offset="1"
         id="stop4258" />
    </linearGradient>
    <radialGradient
       inkscape:collect="always"
       xlink:href="#linearGradient4260"
       id="radialGradient4262"
       cx="35.586458"
       cy="35.58646"
       fx="35.586458"
       fy="35.58646"
       r="17.835017"
       gradientUnits="userSpaceOnUse"
       gradientTransform="matrix(1.4656955,0,0,1.4656953,-16.572457,-16.572445)" />
  </defs>
  <g
     inkscape:label="Lager 1"
     inkscape:groupmode="layer"
     id="layer1">
    <path
       id="path3414"
       style="fill:#131113;fill-opacity:1;stroke:#000000;stroke-width:0"
       d="M 66.912516,35.586465 A 31.326055,31.326061 0 0 1 35.655519,66.912449 31.326055,31.326061 0 0 1 4.2607117,35.724582 31.326055,31.326061 0 0 1 35.379285,4.2610898 31.326055,31.326061 0 0 1 66.911299,35.310233" />
    <path
       id="path2217"
       style="fill:url(#radialGradient4262);stroke:#536756;stroke-width:0"
       d="M 61.727161,35.586463 A 26.140698,26.140696 0 0 1 35.644089,61.727094 26.140698,26.140696 0 0 1 9.446017,35.701718 26.140698,26.140696 0 0 1 35.413579,9.4463387 26.140698,26.140696 0 0 1 61.726143,35.355955" />
    <path
       style="fill:#282930;fill-opacity:1;stroke:#000000;stroke-width:0"
       id="path7123"
       sodipodi:type="arc"
       sodipodi:cx="33.495201"
       sodipodi:cy="17.497089"
       sodipodi:rx="3.6596982"
       sodipodi:ry="3.9733868"
       sodipodi:start="0"
       sodipodi:end="6.2743672"
       sodipodi:arc-type="arc"
       d="m 37.154899,17.497089 a 3.6596982,3.9733868 0 0 1 -3.65163,3.973377 3.6596982,3.9733868 0 0 1 -3.667731,-3.955858 3.6596982,3.9733868 0 0 1 3.63546,-3.990818 3.6596982,3.9733868 0 0 1 3.683759,3.938262"
       sodipodi:open="true" />
    <path
       style="fill:#282930;fill-opacity:1;stroke:#000000;stroke-width:0"
       id="path7123-7"
       sodipodi:type="arc"
       sodipodi:cx="52.253139"
       sodipodi:cy="-3.7392449"
       sodipodi:rx="4.1709557"
       sodipodi:ry="2.7472887"
       sodipodi:start="0"
       sodipodi:end="6.2743672"
       sodipodi:arc-type="arc"
       d="m 56.424095,-3.7392449 a 4.1709557,2.7472887 0 0 1 -4.161761,2.74728199 4.1709557,2.7472887 0 0 1 -4.18011,-2.73516909 4.1709557,2.7472887 0 0 1 4.143331,-2.7593416 4.1709557,2.7472887 0 0 1 4.198378,2.7230031"
       sodipodi:open="true"
       transform="matrix(0.84695811,0.53165963,-0.50573886,0.86268662,0,0)" />
    <path
       style="fill:#282930;fill-opacity:1;stroke:#000000;stroke-width:0"
       id="path7123-0"
       sodipodi:type="arc"
       sodipodi:cx="46.251865"
       sodipodi:cy="42.487606"
       sodipodi:rx="3.34601"
       sodipodi:ry="3.3982916"
       sodipodi:start="0"
       sodipodi:end="6.2743672"
       sodipodi:arc-type="arc"
       d="m 49.597875,42.487606 a 3.34601,3.3982916 0 0 1 -3.338633,3.398283 3.34601,3.3982916 0 0 1 -3.353354,-3.3833 3.34601,3.3982916 0 0 1 3.323848,-3.4132 3.34601,3.3982916 0 0 1 3.368009,3.368251"
       sodipodi:open="true" />
    <path
       style="fill:#282930;fill-opacity:1;stroke:#000000;stroke-width:0"
       id="path7123-6"
       sodipodi:type="arc"
       sodipodi:cx="42.946014"
       sodipodi:cy="40.826118"
       sodipodi:rx="4.7434306"
       sodipodi:ry="3.2677667"
       sodipodi:start="0"
       sodipodi:end="6.2743672"
       sodipodi:arc-type="arc"
       d="m 47.689445,40.826118 a 4.7434306,3.2677667 0 0 1 -4.732974,3.267759 4.7434306,3.2677667 0 0 1 -4.753841,-3.253351 4.7434306,3.2677667 0 0 1 4.712014,-3.282103 4.7434306,3.2677667 0 0 1 4.774617,3.23888"
       sodipodi:open="true"
       transform="matrix(0.94345244,0.33150792,-0.3141507,0.94937313,0,0)" />
    <path
       style="fill:#282930;fill-opacity:1;stroke:#000000;stroke-width:0"
       id="path7123-08"
       sodipodi:type="arc"
       sodipodi:cx="26.904997"
       sodipodi:cy="27.658398"
       sodipodi:rx="2.2598743"
       sodipodi:ry="3.130806"
       sodipodi:start="0"
       sodipodi:end="6.2743672"
       sodipodi:arc-type="arc"
       d="m 29.164871,27.658398 a 2.2598743,3.130806 0 0 1 -2.254892,3.130798 2.2598743,3.130806 0 0 1 -2.264835,-3.116994 2.2598743,3.130806 0 0 1 2.244907,-3.144542 2.2598743,3.130806 0 0 1 2.274732,3.10313"
       sodipodi:open="true"
       transform="matrix(0.98896851,0.14812593,-0.1687437,0.98565996,0,0)" />
    <path
       style="fill:#575865;fill-opacity:1;stroke:#000000;stroke-width:0"
       id="path7123-08-8"
       sodipodi:type="arc"
       sodipodi:cx="38.431744"
       sodipodi:cy="30.224419"
       sodipodi:rx="2.0436101"
       sodipodi:ry="2.1020119"
       sodipodi:start="0"
       sodipodi:end="6.2743672"
       sodipodi:arc-type="arc"
       d="m 40.475354,30.224419 a 2.0436101,2.1020119 0 0 1 -2.039105,2.102006 2.0436101,2.1020119 0 0 1 -2.048096,-2.092739 2.0436101,2.1020119 0 0 1 2.030075,-2.111233 2.0436101,2.1020119 0 0 1 2.057046,2.08343"
       sodipodi:open="true"
       transform="matrix(0.99408281,0.10862492,-0.22845588,0.97355427,0,0)" />
    <path
       style="fill:#575865;fill-opacity:1;stroke:#000000;stroke-width:0"
       id="path7123-08-8-2"
       sodipodi:type="arc"
       sodipodi:cx="30.906754"
       sodipodi:cy="18.909966"
       sodipodi:rx="1.682552"
       sodipodi:ry="1.4768337"
       sodipodi:start="0"
       sodipodi:end="6.2743672"
       sodipodi:arc-type="arc"
       d="m 32.589306,18.909966 a 1.682552,1.4768337 0 0 1 -1.678843,1.47683 1.682552,1.4768337 0 0 1 -1.686245,-1.470319 1.682552,1.4768337 0 0 1 1.671408,-1.483313 1.682552,1.4768337 0 0 1 1.693614,1.463779"
       sodipodi:open="true"
       transform="matrix(0.99578436,0.09172515,-0.26817551,0.96337007,0,0)" />
    <path
       style="fill:#575865;fill-opacity:1;stroke:#000000;stroke-width:0"
       id="path7123-08-8-4"
       sodipodi:type="arc"
       sodipodi:cx="30.179951"
       sodipodi:cy="39.629971"
       sodipodi:rx="2.0436101"
       sodipodi:ry="2.1020119"
       sodipodi:start="0"
       sodipodi:end="6.2743672"
       sodipodi:arc-type="arc"
       d="m 32.223561,39.629971 a 2.0436101,2.1020119 0 0 1 -2.039105,2.102006 2.0436101,2.1020119 0 0 1 -2.048096,-2.092739 2.0436101,2.1020119 0 0 1 2.030075,-2.111233 2.0436101,2.1020119 0 0 1 2.057046,2.08343"
       sodipodi:open="true"
       transform="matrix(0.99408281,0.10862492,-0.22845588,0.97355427,0,0)" />
    <path
       style="fill:#575865;fill-opacity:1;stroke:#000000;stroke-width:0"
       id="path7123-08-8-6"
       sodipodi:type="arc"
       sodipodi:cx="46.66061"
       sodipodi:cy="35.185562"
       sodipodi:rx="1.4825494"
       sodipodi:ry="1.6673627"
       sodipodi:start="0"
       sodipodi:end="6.2743672"
       sodipodi:arc-type="arc"
       d="m 48.14316,35.185562 a 1.4825494,1.6673627 0 0 1 -1.479281,1.667359 1.4825494,1.6673627 0 0 1 -1.485804,-1.660007 1.4825494,1.6673627 0 0 1 1.47273,-1.674678 1.4825494,1.6673627 0 0 1 1.492297,1.652623"
       sodipodi:open="true"
       transform="matrix(0.99285679,0.11931217,-0.20868085,0.97798379,0,0)" />
    <path
       style="fill:#575865;fill-opacity:1;stroke:#000000;stroke-width:0"
       id="path7123-08-8-3"
       sodipodi:type="arc"
       sodipodi:cx="45.546288"
       sodipodi:cy="46.078114"
       sodipodi:rx="2.0436101"
       sodipodi:ry="2.1020119"
       sodipodi:start="0"
       sodipodi:end="6.2743672"
       sodipodi:arc-type="arc"
       d="m 47.589898,46.078114 a 2.0436101,2.1020119 0 0 1 -2.039105,2.102006 2.0436101,2.1020119 0 0 1 -2.048096,-2.092739 2.0436101,2.1020119 0 0 1 2.030075,-2.111233 2.0436101,2.1020119 0 0 1 2.057046,2.08343"
       sodipodi:open="true"
       transform="matrix(0.99408281,0.10862492,-0.22845588,0.97355427,0,0)" />
    <path
       style="fill:#575865;fill-opacity:1;stroke:#000000;stroke-width:0"
       id="path7123-08-8-5"
       sodipodi:type="arc"
       sodipodi:cx="56.101368"
       sodipodi:cy="27.710032"
       sodipodi:rx="2.0436101"
       sodipodi:ry="2.1020119"
       sodipodi:start="0"
       sodipodi:end="6.2743672"
       sodipodi:arc-type="arc"
       d="m 58.144978,27.710032 a 2.0436101,2.1020119 0 0 1 -2.039105,2.102006 2.0436101,2.1020119 0 0 1 -2.048095,-2.092739 2.0436101,2.1020119 0 0 1 2.030074,-2.111233 2.0436101,2.1020119 0 0 1 2.057047,2.08343"
       sodipodi:open="true"
       transform="matrix(0.99408281,0.10862492,-0.22845588,0.97355427,0,0)" />
    <path
       style="fill:#b9bccd;fill-opacity:0;stroke:#737386;stroke-width:2.05503;stroke-linecap:round;stroke-dasharray:none;stroke-opacity:1"
       d="m 54.036899,47.252757 c 3.683237,-4.383448 5.037245,-10.618582 3.503814,-16.134871 -0.39319,-1.414443 -0.963147,-2.77965 -1.692405,-4.053789"
       id="path9894"
       inkscape:path-effect="#path-effect9896"
       inkscape:original-d="m 54.036899,47.252757 c 2.994944,-7.535247 0.509359,-8.59854 3.503814,-16.134871 2.994465,-7.536332 -1.12803,-2.701985 -1.692405,-4.053789"
       sodipodi:nodetypes="csc" />
    <path
       style="fill:#b9bccd;fill-opacity:0;stroke:#737386;stroke-width:2.05503;stroke-linecap:round;stroke-dasharray:none;stroke-opacity:1"
       d="m 14.420272,41.503048 c 0.426639,3.165913 1.925052,6.177682 4.192878,8.427569 0.432405,0.428985 0.891649,0.830915 1.374152,1.202658"
       id="path9952"
       inkscape:path-effect="#path-effect9954"
       inkscape:original-d="m 14.420272,41.503048 c 1.368522,2.746304 2.795808,5.618578 4.192878,8.427569 1.397063,2.80899 0.916657,0.801975 1.374152,1.202658" />
    <path
       style="fill:#b9bccd;fill-opacity:0;stroke:#737386;stroke-width:2.05503;stroke-linecap:round;stroke-dasharray:none;stroke-opacity:1"
       d="m 26.833276,15.173732 c -2.403894,0.859917 -4.607609,2.274122 -6.390823,4.101227 -0.757414,0.776057 -1.439751,1.625352 -2.034394,2.532182"
       id="path9956"
       inkscape:path-effect="#path-effect9958"
       inkscape:original-d="m 26.833276,15.173732 c -2.129899,1.367532 -4.260172,2.734607 -6.390823,4.101227 -2.130649,1.366615 -1.355886,1.688578 -2.034394,2.532182" />
  </g>
</svg>
