<?xml version="1.0" encoding="UTF-8" standalone="no"?>
<!-- Created with Inkscape (http://www.inkscape.org/) -->

<svg
   width="176"
   height="245"
   viewBox="0 0 46.566696 64.822924"
   version="1.1"
   id="svg5"
   inkscape:version="1.2.2 (732a01da63, 2022-12-09)"
   sodipodi:docname="Rainy.svg"
   inkscape:export-filename="Rainy.png"
   inkscape:export-xdpi="96"
   inkscape:export-ydpi="96"
   xmlns:inkscape="http://www.inkscape.org/namespaces/inkscape"
   xmlns:sodipodi="http://sodipodi.sourceforge.net/DTD/sodipodi-0.dtd"
   xmlns="http://www.w3.org/2000/svg"
   xmlns:svg="http://www.w3.org/2000/svg">
  <sodipodi:namedview
     id="namedview7"
     pagecolor="#ffffff"
     bordercolor="#000000"
     borderopacity="0.25"
     inkscape:showpageshadow="2"
     inkscape:pageopacity="0.0"
     inkscape:pagecheckerboard="0"
     inkscape:deskcolor="#d1d1d1"
     inkscape:document-units="mm"
     showgrid="false"
     inkscape:zoom="2.8284271"
     inkscape:cx="96.343299"
     inkscape:cy="107.83378"
     inkscape:window-width="3440"
     inkscape:window-height="1369"
     inkscape:window-x="1912"
     inkscape:window-y="-8"
     inkscape:window-maximized="1"
     inkscape:current-layer="layer1" />
  <defs
     id="defs2" />
  <g
     inkscape:label="Lager 1"
     inkscape:groupmode="layer"
     id="layer1">
    <path
       id="rect4340-31"
       style="fill:#16adff;fill-opacity:1;stroke:#000000;stroke-width:0"
       d="m 20.566026,3.191499 c 0.634825,-0.0042 1.148683,0.4143136 1.152149,0.9383683 l 0.04502,6.8075377 c 0.0035,0.524055 -0.504812,0.949328 -1.139637,0.953526 -0.634825,0.0042 -1.148683,-0.414314 -1.152149,-0.938368 L 19.426389,4.1450249 C 19.422889,3.6209701 19.9312,3.1956976 20.566026,3.191499 Z" />
    <path
       id="rect4340-31-1"
       style="fill:#16adff;fill-opacity:1;stroke:#000000;stroke-width:0"
       d="m 37.93893,12.715907 c 0.634825,-0.0042 1.148684,0.414314 1.15215,0.938369 l 0.04502,6.807538 c 0.0035,0.524055 -0.504812,0.949328 -1.139637,0.953526 -0.634825,0.0042 -1.148683,-0.414314 -1.152149,-0.938368 l -0.04502,-6.807539 c -0.0035,-0.524055 0.504811,-0.949327 1.139636,-0.953526 z" />
    <path
       id="rect4340-31-3"
       style="fill:#16adff;fill-opacity:1;stroke:#000000;stroke-width:0"
       d="m 10.434892,34.371853 c 0.634825,-0.0042 1.148683,0.414314 1.152149,0.938368 l 0.04502,6.807539 c 0.0035,0.524055 -0.50481,0.949328 -1.139636,0.953526 -0.6348251,0.0042 -1.1486828,-0.414314 -1.1521488,-0.938368 l -0.04502,-6.807539 c -0.0035,-0.524055 0.5048117,-0.949327 1.1396358,-0.953526 z" />
    <path
       id="rect4340-31-3-8"
       style="fill:#16adff;fill-opacity:1;stroke:#000000;stroke-width:0"
       d="m 5.079504,24.464691 c 0.6348247,-0.0042 1.1486824,0.414314 1.1521484,0.938368 l 0.04502,6.807539 c 0.0035,0.524055 -0.504811,0.949328 -1.1396364,0.953526 -0.6348247,0.0042 -1.1486824,-0.414314 -1.1521484,-0.938368 l -0.04502,-6.807539 c -0.0035,-0.524055 0.5048117,-0.949327 1.1396364,-0.953526 z" />
    <path
       id="rect4340-31-4"
       style="fill:#16adff;fill-opacity:1;stroke:#000000;stroke-width:0"
       d="m 27.487889,42.613824 c 0.634825,-0.0042 1.148683,0.414314 1.152149,0.938369 l 0.04502,6.807538 c 0.0035,0.524055 -0.504811,0.949328 -1.139636,0.953526 -0.634825,0.0042 -1.148684,-0.414314 -1.15215,-0.938368 l -0.04502,-6.807539 c -0.0035,-0.524055 0.504812,-0.949327 1.139637,-0.953526 z" />
    <path
       id="rect4340-31-4-0"
       style="fill:#16adff;fill-opacity:1;stroke:#000000;stroke-width:0"
       d="m 10.037351,53.089258 c 0.634825,-0.0042 1.148683,0.414314 1.152149,0.938369 l 0.04502,6.807538 c 0.0035,0.524055 -0.504811,0.949328 -1.139636,0.953526 -0.6348244,0.0042 -1.1486834,-0.414314 -1.1521494,-0.938368 l -0.04502,-6.807539 c -0.0035,-0.524055 0.5048117,-0.949327 1.1396364,-0.953526 z" />
    <g
       inkscape:groupmode="layer"
       id="layer2"
       inkscape:label="Raindropp">
      <path
         style="fill:#16adff;fill-opacity:1;stroke:#000000;stroke-width:0"
         id="path1755"
         sodipodi:type="arc"
         sodipodi:cx="5.2428532"
         sodipodi:cy="15.958808"
         sodipodi:rx="3.1749992"
         sodipodi:ry="3.1749988"
         sodipodi:start="0"
         sodipodi:end="6.2743672"
         sodipodi:open="true"
         sodipodi:arc-type="arc"
         d="M 8.4178524,15.958808 A 3.1749992,3.1749988 0 0 1 5.2498525,19.133799 3.1749992,3.1749988 0 0 1 2.0678848,15.972807 3.1749992,3.1749988 0 0 1 5.2218552,12.783879 3.1749992,3.1749988 0 0 1 8.417729,15.930811" />
      <path
         style="fill:#16adff;fill-opacity:1;stroke:#000000;stroke-width:0"
         d="M 2.5123255,14.338671 8.0446262,14.468667 5.3193397,9.2838056 Z"
         id="path2817"
         sodipodi:nodetypes="cccc" />
      <path
         style="fill:#ffffff;fill-opacity:1;stroke:#000000;stroke-width:0"
         id="path3537"
         sodipodi:type="arc"
         sodipodi:cx="5.1951141"
         sodipodi:cy="15.9138"
         sodipodi:rx="2.7600844"
         sodipodi:ry="2.7600846"
         sodipodi:start="0"
         sodipodi:end="1.7557802"
         sodipodi:arc-type="arc"
         d="m 7.9551985,15.9138 a 2.7600844,2.7600846 0 0 1 -0.997009,2.12359 2.7600844,2.7600846 0 0 1 -2.2707396,0.589406"
         sodipodi:open="true" />
      <path
         style="fill:#16adff;fill-opacity:1;stroke:#000000;stroke-width:0"
         id="path3543"
         sodipodi:type="arc"
         sodipodi:cx="7.539124"
         sodipodi:cy="9.113039"
         sodipodi:rx="7.5480981"
         sodipodi:ry="7.6290426"
         sodipodi:start="0"
         sodipodi:end="0.69665758"
         sodipodi:open="true"
         sodipodi:arc-type="arc"
         d="m 15.087222,9.113039 a 7.5480981,7.6290426 0 0 1 -1.758774,4.895234"
         transform="rotate(30.867273)" />
    </g>
    <g
       inkscape:groupmode="layer"
       id="layer2-8"
       inkscape:label="Raindropp"
       transform="translate(39.528224,20.311806)">
      <path
         style="fill:#16adff;fill-opacity:1;stroke:#000000;stroke-width:0"
         id="path1755-6"
         sodipodi:type="arc"
         sodipodi:cx="-7.0114584"
         sodipodi:cy="10.252606"
         sodipodi:rx="3.1749992"
         sodipodi:ry="3.1749988"
         sodipodi:start="0"
         sodipodi:end="6.2743672"
         sodipodi:open="true"
         sodipodi:arc-type="arc"
         d="m -3.8364592,10.252606 a 3.1749992,3.1749988 0 0 1 -3.1679998,3.174991 3.1749992,3.1749988 0 0 1 -3.181968,-3.160992 3.1749992,3.1749988 0 0 1 3.1539706,-3.1889279 3.1749992,3.1749988 0 0 1 3.1958738,3.1469319" />
      <path
         style="fill:#16adff;fill-opacity:1;stroke:#000000;stroke-width:0"
         d="m -9.7419773,8.6324679 5.5323025,0.129996 -2.725287,-5.1848628 z"
         id="path2817-2"
         sodipodi:nodetypes="cccc" />
      <path
         style="fill:#ffffff;fill-opacity:1;stroke:#000000;stroke-width:0"
         id="path3537-1"
         sodipodi:type="arc"
         sodipodi:cx="-7.0591974"
         sodipodi:cy="10.207599"
         sodipodi:rx="2.7600844"
         sodipodi:ry="2.7600846"
         sodipodi:start="0"
         sodipodi:end="1.7557802"
         sodipodi:arc-type="arc"
         d="m -4.299113,10.207599 a 2.7600844,2.7600846 0 0 1 -0.997009,2.123589 2.7600844,2.7600846 0 0 1 -2.2707396,0.589406"
         sodipodi:open="true" />
      <path
         style="fill:#16adff;fill-opacity:1;stroke:#000000;stroke-width:0"
         id="path3543-3"
         sodipodi:type="arc"
         sodipodi:cx="-5.9070468"
         sodipodi:cy="10.502156"
         sodipodi:rx="7.5480981"
         sodipodi:ry="7.6290426"
         sodipodi:start="0"
         sodipodi:end="0.69665758"
         sodipodi:open="true"
         sodipodi:arc-type="arc"
         d="M 1.6410513,10.502156 A 7.5480981,7.6290426 0 0 1 -0.11772231,15.39739"
         transform="rotate(30.867273)" />
    </g>
    <g
       inkscape:groupmode="layer"
       id="layer2-8-8"
       inkscape:label="Raindropp"
       transform="translate(53.185698,-2.4194669)">
      <path
         style="fill:#16adff;fill-opacity:1;stroke:#000000;stroke-width:0"
         id="path1755-6-7"
         sodipodi:type="arc"
         sodipodi:cx="-10.09842"
         sodipodi:cy="9.3171635"
         sodipodi:rx="3.1749992"
         sodipodi:ry="3.1749988"
         sodipodi:start="0"
         sodipodi:end="6.2743672"
         sodipodi:open="true"
         sodipodi:arc-type="arc"
         d="m -6.9234209,9.3171635 a 3.1749992,3.1749988 0 0 1 -3.1680001,3.1749915 3.1749992,3.1749988 0 0 1 -3.181968,-3.1609928 3.1749992,3.1749988 0 0 1 3.153971,-3.1889281 3.1749992,3.1749988 0 0 1 3.1958737,3.1469323" />
      <path
         style="fill:#16adff;fill-opacity:1;stroke:#000000;stroke-width:0"
         d="m -12.828942,7.6970246 5.5323046,0.129996 -2.7252876,-5.1848628 z"
         id="path2817-2-3"
         sodipodi:nodetypes="cccc" />
      <path
         style="fill:#ffffff;fill-opacity:1;stroke:#000000;stroke-width:0"
         id="path3537-1-2"
         sodipodi:type="arc"
         sodipodi:cx="-10.146158"
         sodipodi:cy="9.2721558"
         sodipodi:rx="2.7600844"
         sodipodi:ry="2.7600846"
         sodipodi:start="0"
         sodipodi:end="1.7557802"
         sodipodi:arc-type="arc"
         d="m -7.3860738,9.2721558 a 2.7600844,2.7600846 0 0 1 -0.997009,2.1235892 2.7600844,2.7600846 0 0 1 -2.2707392,0.589406"
         sodipodi:open="true" />
      <path
         style="fill:#16adff;fill-opacity:1;stroke:#000000;stroke-width:0"
         id="path3543-3-3"
         sodipodi:type="arc"
         sodipodi:cx="-9.0366955"
         sodipodi:cy="11.282977"
         sodipodi:rx="7.5480981"
         sodipodi:ry="7.6290426"
         sodipodi:start="0"
         sodipodi:end="0.69665758"
         sodipodi:open="true"
         sodipodi:arc-type="arc"
         d="M -1.4885974,11.282977 A 7.5480981,7.6290426 0 0 1 -3.247371,16.178211"
         transform="rotate(30.867273)" />
    </g>
    <g
       inkscape:groupmode="layer"
       id="layer2-1"
       inkscape:label="Raindropp"
       transform="translate(20.351636,28.917884)">
      <path
         style="fill:#16adff;fill-opacity:1;stroke:#000000;stroke-width:0"
         id="path1755-4"
         sodipodi:type="arc"
         sodipodi:cx="-0.5568946"
         sodipodi:cy="0.14981696"
         sodipodi:rx="3.1749992"
         sodipodi:ry="3.1749988"
         sodipodi:start="0"
         sodipodi:end="6.2743672"
         sodipodi:open="true"
         sodipodi:arc-type="arc"
         d="M 2.6181046,0.14981696 A 3.1749992,3.1749988 0 0 1 -0.54989524,3.324808 3.1749992,3.1749988 0 0 1 -3.731863,0.16381565 3.1749992,3.1749988 0 0 1 -0.57789256,-3.0251124 3.1749992,3.1749988 0 0 1 2.6179812,0.12181984" />
      <path
         style="fill:#16adff;fill-opacity:1;stroke:#000000;stroke-width:0"
         d="m -3.287419,-1.4703201 5.5322995,0.129996 -2.72528543,-5.1848629 z"
         id="path2817-24"
         sodipodi:nodetypes="cccc" />
      <path
         style="fill:#ffffff;fill-opacity:1;stroke:#000000;stroke-width:0"
         id="path3537-6"
         sodipodi:type="arc"
         sodipodi:cx="-0.60463268"
         sodipodi:cy="0.10480925"
         sodipodi:rx="2.7600844"
         sodipodi:ry="2.7600846"
         sodipodi:start="0"
         sodipodi:end="1.7557802"
         sodipodi:arc-type="arc"
         d="M 2.1554517,0.10480925 A 2.7600844,2.7600846 0 0 1 1.1584427,2.2283986 2.7600844,2.7600846 0 0 1 -1.1122969,2.8178047"
         sodipodi:open="true" />
      <path
         style="fill:#16adff;fill-opacity:1;stroke:#000000;stroke-width:0"
         id="path3543-7"
         sodipodi:type="arc"
         sodipodi:cx="-5.5499697"
         sodipodi:cy="-1.4811674"
         sodipodi:rx="7.5480981"
         sodipodi:ry="7.6290426"
         sodipodi:start="0"
         sodipodi:end="0.69665758"
         sodipodi:open="true"
         sodipodi:arc-type="arc"
         d="M 1.9981284,-1.4811674 A 7.5480981,7.6290426 0 0 1 0.23935481,3.4140663"
         transform="rotate(30.867273)" />
    </g>
    <g
       inkscape:groupmode="layer"
       id="layer2-0"
       inkscape:label="Raindropp"
       transform="translate(0.33314846,42.107636)">
      <path
         style="fill:#16adff;fill-opacity:1;stroke:#000000;stroke-width:0"
         id="path1755-63"
         sodipodi:type="arc"
         sodipodi:cx="3.1848803"
         sodipodi:cy="5.8560214"
         sodipodi:rx="3.1749992"
         sodipodi:ry="3.1749988"
         sodipodi:start="0"
         sodipodi:end="6.2743672"
         sodipodi:open="true"
         sodipodi:arc-type="arc"
         d="M 6.3598795,5.8560214 A 3.1749992,3.1749988 0 0 1 3.1918796,9.0310124 3.1749992,3.1749988 0 0 1 0.00991188,5.8700201 3.1749992,3.1749988 0 0 1 3.1638823,2.6810921 3.1749992,3.1749988 0 0 1 6.3597561,5.8280243" />
      <path
         style="fill:#16adff;fill-opacity:1;stroke:#000000;stroke-width:0"
         d="M 0.45435181,4.2358842 5.9866514,4.3658802 3.2613659,-0.81898252 Z"
         id="path2817-1"
         sodipodi:nodetypes="cccc" />
      <path
         style="fill:#ffffff;fill-opacity:1;stroke:#000000;stroke-width:0"
         id="path3537-5"
         sodipodi:type="arc"
         sodipodi:cx="3.1371403"
         sodipodi:cy="5.8110137"
         sodipodi:rx="2.7600844"
         sodipodi:ry="2.7600846"
         sodipodi:start="0"
         sodipodi:end="1.7557802"
         sodipodi:arc-type="arc"
         d="M 5.8972247,5.8110137 A 2.7600844,2.7600846 0 0 1 4.9002157,7.934603 2.7600844,2.7600846 0 0 1 2.6294761,8.5240091"
         sodipodi:open="true" />
      <path
         style="fill:#16adff;fill-opacity:1;stroke:#000000;stroke-width:0"
         id="path3543-8"
         sodipodi:type="arc"
         sodipodi:cx="0.58939129"
         sodipodi:cy="1.4970779"
         sodipodi:rx="7.5480981"
         sodipodi:ry="7.6290426"
         sodipodi:start="0"
         sodipodi:end="0.69665758"
         sodipodi:open="true"
         sodipodi:arc-type="arc"
         d="M 8.1374894,1.4970779 A 7.5480981,7.6290426 0 0 1 6.3787158,6.3923117"
         transform="rotate(30.867273)" />
    </g>
    <g
       inkscape:groupmode="layer"
       id="layer2-4"
       inkscape:label="Raindropp"
       transform="translate(51.408354,30.695228)">
      <path
         style="fill:#16adff;fill-opacity:1;stroke:#000000;stroke-width:0"
         id="path1755-5"
         sodipodi:type="arc"
         sodipodi:cx="-10.09842"
         sodipodi:cy="15.023367"
         sodipodi:rx="3.1749992"
         sodipodi:ry="3.1749988"
         sodipodi:start="0"
         sodipodi:end="6.2743672"
         sodipodi:open="true"
         sodipodi:arc-type="arc"
         d="m -6.9234209,15.023367 a 3.1749992,3.1749988 0 0 1 -3.1680001,3.174991 3.1749992,3.1749988 0 0 1 -3.181968,-3.160992 3.1749992,3.1749988 0 0 1 3.153971,-3.188928 3.1749992,3.1749988 0 0 1 3.1958737,3.146932" />
      <path
         style="fill:#16adff;fill-opacity:1;stroke:#000000;stroke-width:0"
         d="m -12.828942,13.403228 5.5323046,0.129996 -2.7252876,-5.1848619 z"
         id="path2817-5"
         sodipodi:nodetypes="cccc" />
      <path
         style="fill:#ffffff;fill-opacity:1;stroke:#000000;stroke-width:0"
         id="path3537-8"
         sodipodi:type="arc"
         sodipodi:cx="-10.146158"
         sodipodi:cy="14.978359"
         sodipodi:rx="2.7600844"
         sodipodi:ry="2.7600846"
         sodipodi:start="0"
         sodipodi:end="1.7557802"
         sodipodi:arc-type="arc"
         d="m -7.3860738,14.978359 a 2.7600844,2.7600846 0 0 1 -0.997009,2.12359 2.7600844,2.7600846 0 0 1 -2.2707392,0.589406"
         sodipodi:open="true" />
      <path
         style="fill:#16adff;fill-opacity:1;stroke:#000000;stroke-width:0"
         id="path3543-30"
         sodipodi:type="arc"
         sodipodi:cx="-6.1091228"
         sodipodi:cy="16.180944"
         sodipodi:rx="7.5480981"
         sodipodi:ry="7.6290426"
         sodipodi:start="0"
         sodipodi:end="0.69665758"
         sodipodi:open="true"
         sodipodi:arc-type="arc"
         d="m 1.4389753,16.180944 a 7.5480981,7.6290426 0 0 1 -1.75877357,4.895234"
         transform="rotate(30.867273)" />
    </g>
    <g
       inkscape:groupmode="layer"
       id="layer2-5"
       inkscape:label="Raindropp"
       transform="translate(41.399111,51.087893)">
      <path
         style="fill:#16adff;fill-opacity:1;stroke:#000000;stroke-width:0"
         id="path1755-51"
         sodipodi:type="arc"
         sodipodi:cx="-7.0114584"
         sodipodi:cy="10.252606"
         sodipodi:rx="3.1749992"
         sodipodi:ry="3.1749988"
         sodipodi:start="0"
         sodipodi:end="6.2743672"
         sodipodi:open="true"
         sodipodi:arc-type="arc"
         d="m -3.8364592,10.252606 a 3.1749992,3.1749988 0 0 1 -3.1679998,3.174991 3.1749992,3.1749988 0 0 1 -3.181968,-3.160992 3.1749992,3.1749988 0 0 1 3.1539706,-3.1889279 3.1749992,3.1749988 0 0 1 3.1958738,3.1469319" />
      <path
         style="fill:#16adff;fill-opacity:1;stroke:#000000;stroke-width:0"
         d="m -9.7419773,8.6324679 5.5323025,0.129996 -2.725287,-5.1848628 z"
         id="path2817-3"
         sodipodi:nodetypes="cccc" />
      <path
         style="fill:#ffffff;fill-opacity:1;stroke:#000000;stroke-width:0"
         id="path3537-52"
         sodipodi:type="arc"
         sodipodi:cx="-7.0591974"
         sodipodi:cy="10.207599"
         sodipodi:rx="2.7600844"
         sodipodi:ry="2.7600846"
         sodipodi:start="0"
         sodipodi:end="1.7557802"
         sodipodi:arc-type="arc"
         d="m -4.299113,10.207599 a 2.7600844,2.7600846 0 0 1 -0.997009,2.123589 2.7600844,2.7600846 0 0 1 -2.2707396,0.589406"
         sodipodi:open="true" />
      <path
         style="fill:#16adff;fill-opacity:1;stroke:#000000;stroke-width:0"
         id="path3543-80"
         sodipodi:type="arc"
         sodipodi:cx="-5.9070468"
         sodipodi:cy="10.502156"
         sodipodi:rx="7.5480981"
         sodipodi:ry="7.6290426"
         sodipodi:start="0"
         sodipodi:end="0.69665758"
         sodipodi:open="true"
         sodipodi:arc-type="arc"
         d="M 1.6410513,10.502156 A 7.5480981,7.6290426 0 0 1 -0.11772231,15.39739"
         transform="rotate(30.867273)" />
    </g>
  </g>
</svg>
