<?xml version="1.0" encoding="UTF-8" standalone="no"?>
<!-- Created with Inkscape (http://www.inkscape.org/) -->

<svg
   width="269"
   height="269"
   viewBox="0 0 71.172945 71.172916"
   version="1.1"
   id="svg5"
   inkscape:version="1.2.2 (732a01da63, 2022-12-09)"
   sodipodi:docname="Sunny.svg"
   inkscape:export-filename="Sunny.png"
   inkscape:export-xdpi="96"
   inkscape:export-ydpi="96"
   xmlns:inkscape="http://www.inkscape.org/namespaces/inkscape"
   xmlns:sodipodi="http://sodipodi.sourceforge.net/DTD/sodipodi-0.dtd"
   xmlns:xlink="http://www.w3.org/1999/xlink"
   xmlns="http://www.w3.org/2000/svg"
   xmlns:svg="http://www.w3.org/2000/svg">
  <sodipodi:namedview
     id="namedview7"
     pagecolor="#ffffff"
     bordercolor="#000000"
     borderopacity="0.25"
     inkscape:showpageshadow="2"
     inkscape:pageopacity="0.0"
     inkscape:pagecheckerboard="0"
     inkscape:deskcolor="#d1d1d1"
     inkscape:document-units="mm"
     showgrid="false"
     inkscape:zoom="0.25"
     inkscape:cx="202"
     inkscape:cy="-150"
     inkscape:window-width="1718"
     inkscape:window-height="1360"
     inkscape:window-x="3633"
     inkscape:window-y="0"
     inkscape:window-maximized="0"
     inkscape:current-layer="layer1" />
  <defs
     id="defs2">
    <linearGradient
       inkscape:collect="always"
       id="linearGradient4260">
      <stop
         style="stop-color:#ffff00;stop-opacity:1;"
         offset="0"
         id="stop4256" />
      <stop
         style="stop-color:#ffdd05;stop-opacity:1;"
         offset="1"
         id="stop4258" />
    </linearGradient>
    <radialGradient
       inkscape:collect="always"
       xlink:href="#linearGradient4260"
       id="radialGradient4262"
       cx="35.586458"
       cy="35.58646"
       fx="35.586458"
       fy="35.58646"
       r="17.835017"
       gradientUnits="userSpaceOnUse"
       gradientTransform="matrix(0.92719051,0,0,0.92719036,2.5910304,2.5910378)" />
  </defs>
  <g
     inkscape:label="Lager 1"
     inkscape:groupmode="layer"
     id="layer1">
    <path
       id="path3414"
       style="fill:#ff9800;stroke:#000000;stroke-width:0"
       d="M 55.403141,35.586463 A 19.816681,19.816685 0 0 1 35.630146,55.403099 19.816681,19.816685 0 0 1 15.769972,35.673835 19.816681,19.816685 0 0 1 35.455402,15.770212 19.816681,19.816685 0 0 1 55.402371,35.41172" />
    <path
       id="path2217"
       style="fill:url(#radialGradient4262);stroke:#536756;stroke-width:0"
       d="m 52.122915,35.586461 a 16.536455,16.536453 0 0 1 -16.5,16.536413 A 16.536455,16.536453 0 0 1 19.050166,35.659371 16.536455,16.536453 0 0 1 35.477096,19.05037 16.536455,16.536453 0 0 1 52.122272,35.440643" />
    <path
       id="rect4340"
       style="fill:#ff9800;stroke:#000000;stroke-width:0"
       transform="rotate(90)"
       d="m 35.586462,-66.394608 c 0.634839,0 1.145918,0.421902 1.145918,0.945968 v 6.807688 c 0,0.524066 -0.511079,0.945968 -1.145918,0.945968 -0.634838,0 -1.145918,-0.421902 -1.145918,-0.945968 v -6.807688 c 0,-0.524066 0.51108,-0.945968 1.145918,-0.945968 z" />
    <path
       id="rect4340-5"
       style="fill:#ff9800;stroke:#000000;stroke-width:0"
       transform="rotate(119.9579)"
       d="m 13.061262,-79.410568 c 0.634839,0 1.145918,0.421901 1.145918,0.945968 v 6.807687 c 0,0.524066 -0.511079,0.945968 -1.145918,0.945968 -0.634838,0 -1.145918,-0.421902 -1.145918,-0.945968 V -78.4646 c 0,-0.524067 0.51108,-0.945968 1.145918,-0.945968 z" />
    <path
       id="rect4340-0"
       style="fill:#ff9800;stroke:#000000;stroke-width:0"
       transform="rotate(149.91579)"
       d="m -12.95409,-79.439247 c 0.634839,0 1.145918,0.421902 1.145918,0.945968 v 6.807687 c 0,0.524066 -0.511079,0.945968 -1.145918,0.945968 -0.634839,0 -1.145918,-0.421902 -1.145918,-0.945968 v -6.807687 c 0,-0.524066 0.511079,-0.945968 1.145918,-0.945968 z" />
    <path
       id="rect4340-02"
       style="fill:#ff9800;stroke:#000000;stroke-width:0"
       transform="rotate(179.87369)"
       d="m -35.507921,-66.472969 c 0.634838,0 1.145918,0.421902 1.145918,0.945968 v 6.807687 c 0,0.524066 -0.51108,0.945968 -1.145918,0.945968 -0.634839,0 -1.145918,-0.421902 -1.145918,-0.945968 v -6.807687 c 0,-0.524066 0.511079,-0.945968 1.145918,-0.945968 z" />
    <path
       id="rect4340-6"
       style="fill:#ff9800;stroke:#000000;stroke-width:0"
       transform="rotate(-150.1684)"
       d="m -48.573511,-43.976513 c 0.634839,0 1.145918,0.421902 1.145918,0.945968 v 6.807687 c 0,0.524067 -0.511079,0.945968 -1.145918,0.945968 -0.634839,0 -1.145918,-0.421901 -1.145918,-0.945968 v -6.807687 c 0,-0.524066 0.511079,-0.945968 1.145918,-0.945968 z" />
    <path
       id="rect4340-4"
       style="fill:#ff9800;stroke:#000000;stroke-width:0"
       transform="rotate(-120.21051)"
       d="m -48.659544,-17.961287 c 0.634839,0 1.145918,0.421902 1.145918,0.945968 v 6.807688 c 0,0.5240659 -0.511079,0.9459676 -1.145918,0.9459676 -0.634838,0 -1.145918,-0.4219017 -1.145918,-0.9459676 v -6.807688 c 0,-0.524066 0.51108,-0.945968 1.145918,-0.945968 z" />
    <path
       id="rect4340-66"
       style="fill:#ff9800;stroke:#000000;stroke-width:0"
       transform="rotate(-90.252617)"
       d="m -35.743017,4.6210728 c 0.634839,0 1.145918,0.4219016 1.145918,0.9459678 v 6.8076874 c 0,0.524066 -0.511079,0.945968 -1.145918,0.945968 -0.634839,0 -1.145918,-0.421902 -1.145918,-0.945968 V 5.5670406 c 0,-0.5240662 0.511079,-0.9459678 1.145918,-0.9459678 z" />
    <path
       id="rect4340-9"
       style="fill:#ff9800;stroke:#000000;stroke-width:0"
       transform="rotate(-60.294731)"
       d="m -13.275439,17.736223 c 0.634838,0 1.145918,0.421902 1.145918,0.945968 v 6.807688 c 0,0.524066 -0.51108,0.945967 -1.145918,0.945967 -0.634839,0 -1.145918,-0.421901 -1.145918,-0.945967 v -6.807688 c 0,-0.524066 0.511079,-0.945968 1.145918,-0.945968 z" />
    <path
       id="rect4340-3"
       style="fill:#ff9800;stroke:#000000;stroke-width:0"
       transform="rotate(-30.336808)"
       d="m 12.739563,17.879604 c 0.634839,0 1.145918,0.421902 1.145918,0.945968 v 6.807688 c 0,0.524066 -0.511079,0.945967 -1.145918,0.945967 -0.634838,0 -1.145918,-0.421901 -1.145918,-0.945967 v -6.807688 c 0,-0.524066 0.51108,-0.945968 1.145918,-0.945968 z" />
    <path
       id="rect4340-31"
       style="fill:#ff9800;stroke:#000000;stroke-width:0"
       transform="rotate(-0.37894063)"
       d="m 35.350321,5.0129056 c 0.634839,0 1.145918,0.4219016 1.145918,0.9459678 v 6.8076876 c 0,0.524066 -0.511079,0.945968 -1.145918,0.945968 -0.634839,0 -1.145918,-0.421902 -1.145918,-0.945968 V 5.9588734 c 0,-0.5240662 0.511079,-0.9459678 1.145918,-0.9459678 z" />
    <path
       id="rect4340-7"
       style="fill:#ff9800;stroke:#000000;stroke-width:0"
       transform="rotate(29.578957)"
       d="m 48.514979,-17.425713 c 0.634838,0 1.145918,0.421902 1.145918,0.945968 v 6.8076877 c 0,0.5240662 -0.51108,0.9459678 -1.145918,0.9459678 -0.634839,0 -1.145918,-0.4219016 -1.145918,-0.9459678 v -6.8076877 c 0,-0.524066 0.511079,-0.945968 1.145918,-0.945968 z" />
    <path
       id="rect4340-67"
       style="fill:#ff9800;stroke:#000000;stroke-width:0"
       transform="rotate(59.536874)"
       d="m 48.715708,-43.440331 c 0.634838,0 1.145918,0.421902 1.145918,0.945968 v 6.807688 c 0,0.524066 -0.51108,0.945968 -1.145918,0.945968 -0.634839,0 -1.145918,-0.421902 -1.145918,-0.945968 v -6.807688 c 0,-0.524066 0.511079,-0.945968 1.145918,-0.945968 z" />
  </g>
</svg>
