<?xml version="1.0" encoding="UTF-8" standalone="no"?>
<!-- Created with Inkscape (http://www.inkscape.org/) -->

<svg
   width="256"
   height="256"
   viewBox="0 0 67.73336 67.733333"
   version="1.1"
   id="svg5"
   inkscape:version="1.2.1 (9c6d41e410, 2022-07-14)"
   sodipodi:docname="Sunny.svg"
   inkscape:export-filename="./png/Sunny - HighRes.png"
   inkscape:export-xdpi="192"
   inkscape:export-ydpi="192"
   xmlns:inkscape="http://www.inkscape.org/namespaces/inkscape"
   xmlns:sodipodi="http://sodipodi.sourceforge.net/DTD/sodipodi-0.dtd"
   xmlns:xlink="http://www.w3.org/1999/xlink"
   xmlns="http://www.w3.org/2000/svg"
   xmlns:svg="http://www.w3.org/2000/svg">
  <sodipodi:namedview
     id="namedview7"
     pagecolor="#ffffff"
     bordercolor="#000000"
     borderopacity="0.25"
     inkscape:showpageshadow="2"
     inkscape:pageopacity="0.0"
     inkscape:pagecheckerboard="0"
     inkscape:deskcolor="#d1d1d1"
     inkscape:document-units="mm"
     showgrid="false"
     inkscape:zoom="2.8284271"
     inkscape:cx="97.40396"
     inkscape:cy="132.22897"
     inkscape:window-width="1718"
     inkscape:window-height="1178"
     inkscape:window-x="722"
     inkscape:window-y="607"
     inkscape:window-maximized="0"
     inkscape:current-layer="layer1" />
  <defs
     id="defs2">
    <linearGradient
       inkscape:collect="always"
       id="linearGradient4260">
      <stop
         style="stop-color:#ffff00;stop-opacity:1;"
         offset="0"
         id="stop4256" />
      <stop
         style="stop-color:#ffdd05;stop-opacity:1;"
         offset="1"
         id="stop4258" />
    </linearGradient>
    <radialGradient
       inkscape:collect="always"
       xlink:href="#linearGradient4260"
       id="radialGradient4262"
       cx="35.586456"
       cy="35.58646"
       fx="35.586456"
       fy="35.58646"
       r="17.835016"
       gradientUnits="userSpaceOnUse"
       gradientTransform="matrix(0.92719051,0,0,0.92719036,0.87109089,0.87095434)" />
  </defs>
  <g
     inkscape:label="Lager 1"
     inkscape:groupmode="layer"
     id="layer1">
    <path
       id="path3414"
       style="fill:#ff9800;stroke:#000000;stroke-width:0"
       d="M 53.683201,33.86638 A 19.816681,19.816685 0 0 1 33.910206,53.683016 19.816681,19.816685 0 0 1 14.050032,33.953752 19.816681,19.816685 0 0 1 33.735462,14.050129 19.816681,19.816685 0 0 1 53.682431,33.691637" />
    <path
       id="path2217"
       style="fill:url(#radialGradient4262);stroke:#536756;stroke-width:0"
       d="m 50.402975,33.866378 a 16.536455,16.536453 0 0 1 -16.5,16.536413 A 16.536455,16.536453 0 0 1 17.330226,33.939288 16.536455,16.536453 0 0 1 33.757156,17.330287 16.536455,16.536453 0 0 1 50.402332,33.72056" />
    <path
       id="rect4340"
       style="fill:#ff9800;stroke:#000000;stroke-width:0"
       d="m 64.674668,33.866379 c 0,0.634839 -0.421902,1.145918 -0.945968,1.145918 h -6.807688 c -0.524066,0 -0.945968,-0.511079 -0.945968,-1.145918 0,-0.634838 0.421902,-1.145918 0.945968,-1.145918 H 63.7287 c 0.524066,0 0.945968,0.51108 0.945968,1.145918 z" />
    <path
       id="rect4340-5"
       style="fill:#ff9800;stroke:#000000;stroke-width:0"
       d="m 60.558468,49.250838 c -0.317015,0.55002 -0.937761,0.782133 -1.391809,0.520433 l -5.89813,-3.39951 c -0.454046,-0.2617 -0.564365,-0.915177 -0.24735,-1.465197 0.317015,-0.550019 0.937763,-0.782132 1.39181,-0.520433 l 5.898129,3.399511 c 0.454048,0.2617 0.564365,0.915177 0.24735,1.465196 z" />
    <path
       id="rect4340-0"
       style="fill:#ff9800;stroke:#000000;stroke-width:0"
       d="m 49.309793,60.524345 c -0.549319,0.318227 -1.203038,0.209349 -1.465738,-0.24412 l -3.412505,-5.89062 c -0.2627,-0.453469 -0.03196,-1.074726 0.517363,-1.392954 0.54932,-0.318227 1.203039,-0.209349 1.465739,0.24412 l 3.412505,5.89062 c 0.262699,0.453469 0.03196,1.074726 -0.517364,1.392954 z" />
    <path
       id="rect4340-02"
       style="fill:#ff9800;stroke:#000000;stroke-width:0"
       d="m 33.934436,64.674446 c -0.634836,0.0014 -1.146845,-0.419374 -1.148,-0.943439 l -0.01501,-6.807671 c -0.0012,-0.524064 0.508993,-0.947092 1.14383,-0.948491 0.634837,-0.0014 1.146845,0.419374 1.148001,0.943439 l 0.01501,6.807671 c 0.0012,0.524064 -0.508992,0.947092 -1.143831,0.948491 z" />
    <path
       id="rect4340-6"
       style="fill:#ff9800;stroke:#000000;stroke-width:0"
       d="m 18.54093,60.59217 c -0.550717,-0.315802 -0.784198,-0.936036 -0.5235,-1.390659 l 3.386501,-5.905609 c 0.260698,-0.454623 0.913931,-0.566381 1.464648,-0.250579 0.550717,0.315802 0.784198,0.936035 0.5235,1.390659 l -3.386501,5.905609 c -0.260698,0.454622 -0.913931,0.566381 -1.464648,0.250579 z" />
    <path
       id="rect4340-4"
       style="fill:#ff9800;stroke:#000000;stroke-width:0"
       d="M 7.2426655,49.368377 C 6.9232281,48.81976 7.0306645,48.165803 7.4835532,47.902104 l 5.8830848,-3.425482 c 0.452889,-0.263699 1.074653,-0.03433 1.39409,0.514292 0.319437,0.548616 0.212001,1.202574 -0.240887,1.466273 l -5.8830853,3.425482 c -0.4528886,0.263698 -1.0746534,0.03432 -1.3940902,-0.514292 z" />
    <path
       id="rect4340-66"
       style="fill:#ff9800;stroke:#000000;stroke-width:0"
       d="m 3.0586788,34.002212 c -0.0028,-0.634832 0.4168451,-1.147767 0.9409062,-1.150077 l 6.807621,-0.03001 c 0.524061,-0.0023 0.948212,0.506903 0.951011,1.141736 0.0028,0.634833 -0.416845,1.147767 -0.940906,1.150077 l -6.8076213,0.03001 c -0.5240611,0.0023 -0.9482119,-0.506903 -0.9510109,-1.141736 z" />
    <path
       id="rect4340-9"
       style="fill:#ff9800;stroke:#000000;stroke-width:0"
       d="m 7.1070028,18.599759 c 0.3145867,-0.551411 0.9343047,-0.78626 1.3895011,-0.526565 l 5.9130621,3.373472 c 0.455196,0.259695 0.568394,0.91268 0.253807,1.464091 -0.314587,0.551413 -0.934304,0.786261 -1.3895,0.526566 L 7.3608108,20.063851 C 6.9056144,19.804156 6.7924156,19.151171 7.1070028,18.599759 Z" />
    <path
       id="rect4340-3"
       style="fill:#ff9800;stroke:#000000;stroke-width:0"
       d="m 18.305881,7.2767624 c 0.547911,-0.3206458 1.202104,-0.2146512 1.4668,0.2376551 l 3.438442,5.8755205 c 0.264696,0.452306 0.03669,1.074574 -0.511218,1.395219 -0.54791,0.320646 -1.202103,0.214653 -1.4668,-0.237654 L 17.794663,8.6719825 C 17.529967,8.2196767 17.75797,7.5974078 18.305881,7.2767624 Z" />
    <path
       id="rect4340-31"
       style="fill:#ff9800;stroke:#000000;stroke-width:0"
       d="m 33.662762,3.0589156 c 0.634825,-0.0042 1.148684,0.4143136 1.15215,0.9383683 l 0.04502,6.8075391 c 0.0035,0.524055 -0.504812,0.949328 -1.139637,0.953526 -0.634825,0.0042 -1.148683,-0.414314 -1.152149,-0.938368 l -0.04502,-6.8075395 c -0.0035,-0.5240548 0.504811,-0.9493273 1.139636,-0.9535259 z" />
    <path
       id="rect4340-7"
       style="fill:#ff9800;stroke:#000000;stroke-width:0"
       d="m 49.074111,7.0732722 c 0.552103,0.3133703 0.788317,0.932569 0.529627,1.3883373 L 46.24331,14.382094 c -0.258691,0.455768 -0.911425,0.570405 -1.463529,0.257035 -0.552104,-0.313371 -0.788318,-0.932569 -0.529627,-1.388337 l 3.360428,-5.9204848 c 0.258691,-0.4557678 0.911424,-0.5704058 1.463529,-0.257035 z" />
    <path
       id="rect4340-67"
       style="fill:#ff9800;stroke:#000000;stroke-width:0"
       d="m 60.42177,18.247154 c 0.321852,0.547202 0.217301,1.201628 -0.234421,1.467321 l -5.867925,3.451387 c -0.451722,0.265693 -1.074492,0.03906 -1.396344,-0.50814 -0.321853,-0.547203 -0.217301,-1.201628 0.23442,-1.467321 l 5.867925,-3.451387 c 0.451722,-0.265693 1.074492,-0.03906 1.396345,0.50814 z" />
  </g>
</svg>
